<?xml version="1.0" encoding="UTF-8" standalone="no"?>
<svg
   sodipodi:docname="FourierTransform.svg"
   inkscape:version="1.1.1 (3bf5ae0d25, 2021-09-20, custom)"
   id="svg8"
   version="1.1"
   viewBox="0 0 201.4033 34.277558"
   height="34.277557mm"
   width="201.40329mm"
   xmlns:inkscape="http://www.inkscape.org/namespaces/inkscape"
   xmlns:sodipodi="http://sodipodi.sourceforge.net/DTD/sodipodi-0.dtd"
   xmlns="http://www.w3.org/2000/svg"
   xmlns:svg="http://www.w3.org/2000/svg"
   xmlns:rdf="http://www.w3.org/1999/02/22-rdf-syntax-ns#"
   xmlns:cc="http://creativecommons.org/ns#"
   xmlns:dc="http://purl.org/dc/elements/1.1/"
   xmlns:ns1="http://www.iki.fi/pav/software/textext/">
  <defs
     id="defs2">
    <marker
       style="overflow:visible"
       id="Arrow2Lstart"
       refX="0"
       refY="0"
       orient="auto"
       inkscape:stockid="Arrow2Lstart"
       inkscape:isstock="true">
      <path
         transform="matrix(1.1,0,0,1.1,1.1,0)"
         d="M 8.7185878,4.0337352 -2.2072895,0.01601326 8.7185884,-4.0017078 c -1.7454984,2.3720609 -1.7354408,5.6174519 -6e-7,8.035443 z"
         style="fill:#000000;fill-opacity:1;fill-rule:evenodd;stroke:#000000;stroke-width:0.625;stroke-linejoin:round;stroke-opacity:1"
         id="path2046" />
    </marker>
    <marker
       style="overflow:visible"
       id="marker3639"
       refX="0"
       refY="0"
       orient="auto"
       inkscape:stockid="Arrow2Lend"
       inkscape:isstock="true">
      <path
         transform="matrix(-1.1,0,0,-1.1,-1.1,0)"
         d="M 8.7185878,4.0337352 -2.2072895,0.01601326 8.7185884,-4.0017078 c -1.7454984,2.3720609 -1.7354408,5.6174519 -6e-7,8.035443 z"
         style="fill:#000000;fill-opacity:1;fill-rule:evenodd;stroke:#000000;stroke-width:0.625;stroke-linejoin:round;stroke-opacity:1"
         id="path3637" />
    </marker>
    <marker
       style="overflow:visible"
       id="marker3022"
       refX="0"
       refY="0"
       orient="auto"
       inkscape:stockid="Arrow2Lend"
       inkscape:isstock="true">
      <path
         transform="matrix(-1.1,0,0,-1.1,-1.1,0)"
         d="M 8.7185878,4.0337352 -2.2072895,0.01601326 8.7185884,-4.0017078 c -1.7454984,2.3720609 -1.7354408,5.6174519 -6e-7,8.035443 z"
         style="fill:#000000;fill-opacity:1;fill-rule:evenodd;stroke:#000000;stroke-width:0.625;stroke-linejoin:round;stroke-opacity:1"
         id="path3020" />
    </marker>
    <marker
       style="overflow:visible"
       id="DotL"
       refX="0"
       refY="0"
       orient="auto"
       inkscape:stockid="DotL"
       inkscape:isstock="true">
      <path
         transform="matrix(0.8,0,0,0.8,5.92,0.8)"
         style="fill-rule:evenodd;stroke:#000000;stroke-width:1pt"
         d="m -2.5,-1 c 0,2.76 -2.24,5 -5,5 -2.76,0 -5,-2.24 -5,-5 0,-2.76 2.24,-5 5,-5 2.76,0 5,2.24 5,5 z"
         id="path2089" />
    </marker>
    <marker
       style="overflow:visible"
       id="Arrow1Lstart"
       refX="0"
       refY="0"
       orient="auto"
       inkscape:stockid="Arrow1Lstart"
       inkscape:isstock="true">
      <path
         transform="matrix(0.8,0,0,0.8,10,0)"
         style="fill-rule:evenodd;stroke:#000000;stroke-width:1pt"
         d="M 0,0 5,-5 -12.5,0 5,5 Z"
         id="path2028" />
    </marker>
    <pattern
       patternUnits="userSpaceOnUse"
       width="0.94488189"
       height="106.05568"
       patternTransform="translate(274.8043,212.58749)"
       id="pattern835">
      <path
         style="font-variation-settings:normal;opacity:1;vector-effect:none;fill:none;fill-opacity:1;stroke:#000000;stroke-width:0.944882;stroke-linecap:round;stroke-linejoin:round;stroke-miterlimit:4;stroke-dasharray:none;stroke-dashoffset:0;stroke-opacity:1;stop-color:#000000;stop-opacity:1"
         d="M 0.47244094,0.47244094 V 105.58324"
         id="path833" />
    </pattern>
    <marker
       style="overflow:visible"
       id="Arrow2Lend-3"
       refX="0"
       refY="0"
       orient="auto"
       inkscape:stockid="Arrow2Lend"
       inkscape:isstock="true">
      <path
         transform="matrix(-1.1,0,0,-1.1,-1.1,0)"
         d="M 8.7185878,4.0337352 -2.2072895,0.01601326 8.7185884,-4.0017078 c -1.7454984,2.3720609 -1.7354408,5.6174519 -6e-7,8.035443 z"
         style="fill:context-stroke;fill-rule:evenodd;stroke:context-stroke;stroke-width:0.625;stroke-linejoin:round"
         id="path960" />
    </marker>
    <marker
       style="overflow:visible"
       id="marker986"
       refX="0"
       refY="0"
       orient="auto"
       inkscape:stockid="Arrow2Lend"
       inkscape:isstock="true">
      <path
         transform="matrix(-1.1,0,0,-1.1,-1.1,0)"
         d="M 8.7185878,4.0337352 -2.2072895,0.01601326 8.7185884,-4.0017078 c -1.7454984,2.3720609 -1.7354408,5.6174519 -6e-7,8.035443 z"
         style="fill:context-stroke;fill-rule:evenodd;stroke:context-stroke;stroke-width:0.625;stroke-linejoin:round"
         id="path984" />
    </marker>
    <marker
       style="overflow:visible"
       id="marker990"
       refX="0"
       refY="0"
       orient="auto"
       inkscape:stockid="Arrow2Lend"
       inkscape:isstock="true">
      <path
         transform="matrix(-1.1,0,0,-1.1,-1.1,0)"
         d="M 8.7185878,4.0337352 -2.2072895,0.01601326 8.7185884,-4.0017078 c -1.7454984,2.3720609 -1.7354408,5.6174519 -6e-7,8.035443 z"
         style="fill:context-stroke;fill-rule:evenodd;stroke:context-stroke;stroke-width:0.625;stroke-linejoin:round"
         id="path988" />
    </marker>
    <marker
       style="overflow:visible"
       id="marker994"
       refX="0"
       refY="0"
       orient="auto"
       inkscape:stockid="Arrow2Lend"
       inkscape:isstock="true">
      <path
         transform="matrix(-1.1,0,0,-1.1,-1.1,0)"
         d="M 8.7185878,4.0337352 -2.2072895,0.01601326 8.7185884,-4.0017078 c -1.7454984,2.3720609 -1.7354408,5.6174519 -6e-7,8.035443 z"
         style="fill:context-stroke;fill-rule:evenodd;stroke:context-stroke;stroke-width:0.625;stroke-linejoin:round"
         id="path992" />
    </marker>
    <g
       id="id-2fc2241f-4f58-41df-aaa1-ec36bf9e66b4">
      <symbol
         overflow="visible"
         id="id-ff9eacb4-c5b1-4a56-84d7-0641ab3759af">
        <path
           style="stroke:none;stroke-width:0"
           d=""
           id="id-bb5af441-cf86-4646-862c-a4b2d452e30a" />
      </symbol>
      <symbol
         overflow="visible"
         id="id-d94eac51-68fa-4f5c-ad55-2624c4900f72">
        <path
           style="stroke:none;stroke-width:0"
           d="M 3.109375,-4.5 H 2.265625 L 2.5625,-5.578125 C 2.578125,-5.59375 2.578125,-5.625 2.578125,-5.625 c 0,-0.078125 -0.03125,-0.109375 -0.09375,-0.109375 -0.0625,0 -0.09375,0.015625 -0.15625,0.09375 -1,1.296875 -1.734375,1.078125 -1.734375,1.421875 0,0.015625 0,0.03125 0.015625,0.0625 h 0.78125 L 0.625,-1.265625 c -0.03125,0.125 -0.234375,0.78125 -0.234375,0.984375 0,0.234375 0.21875,0.390625 0.5,0.390625 0.484375,0 0.828125,-0.28125 1.5,-1.265625 L 2.25,-1.234375 C 1.734375,-0.5625 1.5625,-0.40625 1.390625,-0.40625 c -0.09375,0 -0.15625,-0.078125 -0.15625,-0.203125 0,-0.015625 0,-0.015625 0.015625,-0.046875 l 0.921875,-3.5 H 3.0625 Z m 0,0"
           id="id-439d7178-c053-4643-949e-a961311caaa8" />
      </symbol>
    </g>
    <g
       id="id-0f2a682b-2a31-41cd-a075-dfd37cdfd15c">
      <symbol
         overflow="visible"
         id="id-793796cf-d032-4838-b10e-2aec5144d561">
        <path
           style="stroke:none;stroke-width:0"
           d=""
           id="id-73a261bb-3146-4548-9ff8-b64b0fa60315" />
      </symbol>
      <symbol
         overflow="visible"
         id="id-f601a531-5406-478a-9573-8b9d8c62b7f0">
        <path
           style="stroke:none;stroke-width:0"
           d="M 4.375,-1.078125 4.21875,-1.171875 C 4.140625,-1.0625 4.078125,-1.015625 3.984375,-0.875 3.75,-0.5625 3.640625,-0.46875 3.5,-0.46875 c -0.15625,0 -0.25,-0.125 -0.3125,-0.421875 -0.03125,-0.09375 -0.03125,-0.15625 -0.046875,-0.171875 -0.25,-0.984375 -0.375,-1.546875 -0.375,-1.703125 0.453125,-0.8125 0.828125,-1.28125 1.03125,-1.28125 0.0625,0 0.15625,0.03125 0.25,0.09375 0.125,0.0625 0.1875,0.09375 0.296875,0.09375 0.203125,0 0.34375,-0.15625 0.34375,-0.375 0,-0.234375 -0.171875,-0.390625 -0.421875,-0.390625 -0.46875,0 -0.859375,0.375 -1.59375,1.5 L 2.5625,-3.703125 C 2.421875,-4.421875 2.296875,-4.625 2.015625,-4.625 1.78125,-4.625 1.4375,-4.546875 0.78125,-4.328125 L 0.671875,-4.28125 0.71875,-4.125 0.890625,-4.171875 c 0.203125,-0.046875 0.328125,-0.0625 0.40625,-0.0625 0.265625,0 0.328125,0.09375 0.484375,0.71875 L 2.078125,-2.21875 1.21875,-1 C 1,-0.6875 0.796875,-0.5 0.6875,-0.5 0.625,-0.5 0.515625,-0.53125 0.40625,-0.59375 0.265625,-0.65625 0.171875,-0.6875 0.078125,-0.6875 c -0.21875,0 -0.359375,0.15625 -0.359375,0.359375 0,0.28125 0.203125,0.4375 0.515625,0.4375 0.328125,0 0.453125,-0.09375 0.984375,-0.71875 l 0.9375,-1.234375 0.328125,1.25 c 0.125,0.546875 0.265625,0.703125 0.609375,0.703125 0.390625,0 0.671875,-0.25 1.28125,-1.1875 z m 0,0"
           id="id-31686832-4645-48c0-a56d-915d1378a09b" />
      </symbol>
    </g>
  </defs>
  <sodipodi:namedview
     id="base"
     pagecolor="#ffffff"
     bordercolor="#666666"
     borderopacity="1.0"
     inkscape:pageopacity="0.0"
     inkscape:pageshadow="2"
     inkscape:zoom="0.9899495"
     inkscape:cx="137.38075"
     inkscape:cy="234.35539"
     inkscape:document-units="mm"
     inkscape:current-layer="layer1"
     inkscape:document-rotation="0"
     showgrid="false"
     inkscape:window-width="2160"
     inkscape:window-height="1360"
     inkscape:window-x="0"
     inkscape:window-y="44"
     inkscape:window-maximized="1"
     inkscape:snap-intersection-paths="true"
     inkscape:snap-bbox="true"
     inkscape:snap-center="true"
     fit-margin-top="0"
     fit-margin-left="0"
     fit-margin-right="0"
     fit-margin-bottom="0"
     inkscape:pagecheckerboard="0" />
  <metadata
     id="metadata5">
    <rdf:RDF>
      <cc:Work
         rdf:about="">
        <dc:format>image/svg+xml</dc:format>
        <dc:type
           rdf:resource="http://purl.org/dc/dcmitype/StillImage" />
        <dc:title />
      </cc:Work>
    </rdf:RDF>
  </metadata>
  <g
     inkscape:label="Layer 1"
     inkscape:groupmode="layer"
     id="layer1"
     transform="translate(-184.44137,-17.242375)">
    <g
       id="g1248">
      <g
         id="id-900a514d-19ed-42c0-b7d5-1b4361169878"
         transform="matrix(0.52916701,0,0,0.52916701,300.62331,-20.942546)">
        <g
           style="fill:#000000;fill-opacity:1"
           id="id-c4856642-e3e2-495f-8274-420d388e32a6">
          <g
             transform="translate(156.595,134.765)"
             id="g1513">
            <path
               style="stroke:none"
               d="m 4.453125,-6.4375 c 0,-0.390625 -0.390625,-0.6875 -0.90625,-0.6875 -0.5,0 -0.90625,0.21875 -1.28125,0.6875 C 1.9375,-6.015625 1.71875,-5.515625 1.40625,-4.5 H 0.4375 L 0.375,-4.15625 H 1.3125 L 0.390625,0.25 C 0.140625,1.390625 -0.1875,1.953125 -0.625,1.953125 -0.75,1.953125 -0.84375,1.875 -0.84375,1.78125 -0.84375,1.75 -0.828125,1.71875 -0.796875,1.671875 -0.75,1.609375 -0.75,1.5625 -0.75,1.5 c 0,-0.21875 -0.1875,-0.390625 -0.40625,-0.390625 -0.21875,0 -0.390625,0.1875 -0.390625,0.421875 0,0.375 0.359375,0.640625 0.828125,0.640625 0.9375,0 1.65625,-1.03125 2.109375,-2.96875 l 0.75,-3.359375 H 3.28125 L 3.34375,-4.5 h -1.125 C 2.515625,-6.15625 2.90625,-6.890625 3.5,-6.890625 c 0.140625,0 0.234375,0.0625 0.234375,0.140625 0,0 -0.015625,0.046875 -0.046875,0.09375 -0.046875,0.078125 -0.0625,0.140625 -0.0625,0.21875 0,0.25 0.15625,0.421875 0.390625,0.421875 0.234375,0 0.4375,-0.1875 0.4375,-0.421875 z m 0,0"
               id="id-07cbc4b7-63a2-40a6-ae0d-6a78acadf505" />
          </g>
        </g>
      </g>
      <path
         style="font-variation-settings:normal;vector-effect:none;fill:none;fill-opacity:1;stroke:#000000;stroke-width:0.25;stroke-linecap:butt;stroke-linejoin:miter;stroke-miterlimit:4;stroke-dasharray:none;stroke-dashoffset:0;stroke-opacity:1;marker-end:url(#Arrow2Lend-3);stop-color:#000000"
         d="m 290.35428,49.407827 h 90.4963"
         id="path1285" />
      <path
         style="font-variation-settings:normal;vector-effect:none;fill:none;fill-opacity:1;stroke:#000000;stroke-width:0.25;stroke-linecap:round;stroke-linejoin:round;stroke-miterlimit:4;stroke-dasharray:none;stroke-dashoffset:0;stroke-opacity:1;stop-color:#000000"
         d="m 335.69068,28.632009 c 16.86481,0.1282 19.86745,3.186545 24.37898,8.829491 4.51154,5.642946 6.7008,11.901937 6.7008,11.901937"
         id="path1634" />
      <path
         style="font-variation-settings:normal;vector-effect:none;fill:none;fill-opacity:1;stroke:#000000;stroke-width:0.25;stroke-linecap:round;stroke-linejoin:round;stroke-miterlimit:4;stroke-dasharray:none;stroke-dashoffset:0;stroke-opacity:1;stop-color:#000000"
         d="m 335.69068,28.632009 c -16.86481,0.1282 -19.86745,3.186545 -24.37898,8.829491 -4.51154,5.642946 -6.7008,11.901937 -6.7008,11.901937"
         id="path1752" />
      <g
         transform="matrix(0.529167,0,0,0.529167,338.69485,19.488804)"
         ns1:version="1.6.1"
         ns1:texconverter="xelatex"
         ns1:pdfconverter="inkscape"
         ns1:text="$|X|$"
         ns1:preamble="/home/xiaocy/.config/inkscape/extensions/textext/default_packages.tex"
         ns1:scale="1.5"
         ns1:alignment="middle center"
         ns1:stroke-to-path="0"
         ns1:inkscapeversion="1.1.1"
         ns1:jacobian_sqrt="0.529167"
         id="g1842">
        <defs
           id="id-238735d1-d642-4ef4-a217-0f06920c479a">
          <g
             id="id-7de3458a-adda-467b-bea0-105e159c873e">
            <symbol
               overflow="visible"
               id="id-baae3686-4b92-4d70-9550-bedf2603db77">
              <path
                 style="stroke:none"
                 d=""
                 id="id-aa37c928-4486-4eb5-ac27-b202876f2688" />
            </symbol>
            <symbol
               overflow="visible"
               id="id-02bb2541-a520-4a0a-9528-d165c3cad39f">
              <path
                 style="stroke:none"
                 d="M 1.34375,2.03125 V -7.421875 H 0.75 V 2.03125 Z m 0,0"
                 id="id-66eb2ea1-4733-450b-8245-fa2192e74903" />
            </symbol>
            <symbol
               overflow="visible"
               id="id-287597f8-74ab-4aa3-ab7c-7a5df02f7b27">
              <path
                 style="stroke:none"
                 d=""
                 id="id-1650df6b-d909-42f0-8a6a-59ce9274797b" />
            </symbol>
            <symbol
               overflow="visible"
               id="id-051f2dd0-240b-494d-b061-47e87b908070">
              <path
                 style="stroke:none"
                 d="M 5.953125,0 V -0.171875 C 5.21875,-0.25 5.125,-0.3125 4.859375,-0.9375 L 3.796875,-3.65625 5.5625,-5.6875 c 0.546875,-0.609375 0.859375,-0.859375 1.3125,-1 V -6.859375 H 4.6875 V -6.6875 c 0.515625,0.0625 0.640625,0.140625 0.640625,0.375 0,0.140625 -0.0625,0.25 -0.203125,0.4375 l -1.53125,1.75 -0.609375,-1.546875 c -0.125,-0.28125 -0.15625,-0.453125 -0.15625,-0.59375 0,-0.25 0.171875,-0.34375 0.734375,-0.421875 V -6.859375 H 0.796875 V -6.6875 c 0.609375,0.046875 0.765625,0.15625 0.96875,0.640625 L 2.875,-3.28125 2,-2.265625 c -1.453125,1.71875 -1.75,1.984375 -2.296875,2.09375 V 0 H 1.9375 v -0.171875 c -0.5,0 -0.671875,-0.09375 -0.671875,-0.359375 0,-0.15625 0.0625,-0.3125 0.21875,-0.484375 l 1.578125,-1.8125 0.703125,1.734375 c 0.078125,0.1875 0.125,0.359375 0.125,0.515625 0,0.3125 -0.109375,0.359375 -0.796875,0.40625 V 0 Z m 0,0"
                 id="id-f7d0772a-f04e-481e-9f45-b48146c3a429" />
            </symbol>
          </g>
        </defs>
        <g
           id="id-29861539-1527-43be-bd41-a02c449e14ab"
           transform="translate(-155.938,-127.343)">
          <g
             style="fill:#000000;fill-opacity:1"
             id="id-84096958-52e5-4878-a6e8-3be7b7556970">
            <g
               transform="translate(155.188,134.765)"
               id="g2000">
              <path
                 style="stroke:none"
                 d="M 1.34375,2.03125 V -7.421875 H 0.75 V 2.03125 Z m 0,0"
                 id="id-96f547b9-5337-4c7e-9abe-0e32c4c2e485" />
            </g>
          </g>
          <g
             style="fill:#000000;fill-opacity:1"
             id="id-3c1db9e1-6dd2-4023-b362-855e20d0f0bc">
            <g
               transform="translate(158.286,134.765)"
               id="g2004">
              <path
                 style="stroke:none"
                 d="M 5.953125,0 V -0.171875 C 5.21875,-0.25 5.125,-0.3125 4.859375,-0.9375 L 3.796875,-3.65625 5.5625,-5.6875 c 0.546875,-0.609375 0.859375,-0.859375 1.3125,-1 V -6.859375 H 4.6875 V -6.6875 c 0.515625,0.0625 0.640625,0.140625 0.640625,0.375 0,0.140625 -0.0625,0.25 -0.203125,0.4375 l -1.53125,1.75 -0.609375,-1.546875 c -0.125,-0.28125 -0.15625,-0.453125 -0.15625,-0.59375 0,-0.25 0.171875,-0.34375 0.734375,-0.421875 V -6.859375 H 0.796875 V -6.6875 c 0.609375,0.046875 0.765625,0.15625 0.96875,0.640625 L 2.875,-3.28125 2,-2.265625 c -1.453125,1.71875 -1.75,1.984375 -2.296875,2.09375 V 0 H 1.9375 v -0.171875 c -0.5,0 -0.671875,-0.09375 -0.671875,-0.359375 0,-0.15625 0.0625,-0.3125 0.21875,-0.484375 l 1.578125,-1.8125 0.703125,1.734375 c 0.078125,0.1875 0.125,0.359375 0.125,0.515625 0,0.3125 -0.109375,0.359375 -0.796875,0.40625 V 0 Z m 0,0"
                 id="id-ff32576a-9a7f-4520-91cc-d9afa6d3cda5" />
            </g>
          </g>
          <g
             style="fill:#000000;fill-opacity:1"
             id="id-91914072-6e4b-49ef-944d-ad6e61b19de5">
            <g
               transform="translate(165.951,134.765)"
               id="g2008">
              <path
                 style="stroke:none"
                 d="M 1.34375,2.03125 V -7.421875 H 0.75 V 2.03125 Z m 0,0"
                 id="id-c1d65e96-a646-43c7-91d1-cd28a71ea8c3" />
            </g>
          </g>
        </g>
      </g>
      <path
         style="font-variation-settings:normal;vector-effect:none;fill:none;fill-opacity:1;stroke:#000000;stroke-width:0.25;stroke-linecap:round;stroke-linejoin:round;stroke-miterlimit:4;stroke-dasharray:none;stroke-dashoffset:0;stroke-opacity:1;marker-end:url(#Arrow2Lend-3);stop-color:#000000"
         d="M 335.60243,49.407827 V 17.660301"
         id="path961" />
    </g>
    <g
       id="g1217">
      <path
         style="font-variation-settings:normal;opacity:1;vector-effect:none;fill:none;fill-opacity:1;stroke:#000000;stroke-width:0.25;stroke-linecap:round;stroke-linejoin:round;stroke-miterlimit:4;stroke-dasharray:none;stroke-dashoffset:0;stroke-opacity:1;stop-color:#000000;stop-opacity:1"
         d="m 190.11343,44.711257 c 0,0 15.89383,-19.536653 26.80924,-15.184268 10.9154,4.352392 20.14054,15.986799 30.46132,10.721659 10.32078,-5.265146 11.53891,-13.987796 21.87984,-17.840765"
         id="path1274" />
      <g
         transform="matrix(0.529167,0,0,0.529167,277.62513,48.197767)"
         ns1:version="1.3.1"
         ns1:texconverter="xelatex"
         ns1:pdfconverter="inkscape"
         ns1:text="$t$"
         ns1:preamble="/home/xiaocy/.config/inkscape/extensions/textext/default_packages.tex"
         ns1:scale="1.5"
         ns1:alignment="middle center"
         ns1:inkscapeversion="1.1.1"
         ns1:jacobian_sqrt="0.529167"
         id="g1587">
        <defs
           id="id-d7b3bdb9-33f8-4642-b1a4-370e18c040dc">
          <g
             id="g1368">
            <symbol
               overflow="visible"
               id="symbol1362">
              <path
                 style="stroke:none;stroke-width:0"
                 d=""
                 id="path1360" />
            </symbol>
            <symbol
               overflow="visible"
               id="symbol1366">
              <path
                 style="stroke:none;stroke-width:0"
                 d="M 3.109375,-4.5 H 2.265625 L 2.5625,-5.578125 C 2.578125,-5.59375 2.578125,-5.625 2.578125,-5.625 c 0,-0.078125 -0.03125,-0.109375 -0.09375,-0.109375 -0.0625,0 -0.09375,0.015625 -0.15625,0.09375 -1,1.296875 -1.734375,1.078125 -1.734375,1.421875 0,0.015625 0,0.03125 0.015625,0.0625 h 0.78125 L 0.625,-1.265625 c -0.03125,0.125 -0.234375,0.78125 -0.234375,0.984375 0,0.234375 0.21875,0.390625 0.5,0.390625 0.484375,0 0.828125,-0.28125 1.5,-1.265625 L 2.25,-1.234375 C 1.734375,-0.5625 1.5625,-0.40625 1.390625,-0.40625 c -0.09375,0 -0.15625,-0.078125 -0.15625,-0.203125 0,-0.015625 0,-0.015625 0.015625,-0.046875 l 0.921875,-3.5 H 3.0625 Z m 0,0"
                 id="path1364" />
            </symbol>
          </g>
        </defs>
        <g
           id="id-4fd03d23-cb36-4051-bdd7-d1ba71558a28"
           transform="translate(-155.117,-129.031)">
          <g
             style="fill:#000000;fill-opacity:1"
             id="id-59610206-db41-4cde-ba80-f0aea91296ac">
            <g
               transform="translate(154.726,134.765)"
               id="g1583">
              <path
                 style="stroke:none;stroke-width:0"
                 d="M 3.109375,-4.5 H 2.265625 L 2.5625,-5.578125 C 2.578125,-5.59375 2.578125,-5.625 2.578125,-5.625 c 0,-0.078125 -0.03125,-0.109375 -0.09375,-0.109375 -0.0625,0 -0.09375,0.015625 -0.15625,0.09375 -1,1.296875 -1.734375,1.078125 -1.734375,1.421875 0,0.015625 0,0.03125 0.015625,0.0625 h 0.78125 L 0.625,-1.265625 c -0.03125,0.125 -0.234375,0.78125 -0.234375,0.984375 0,0.234375 0.21875,0.390625 0.5,0.390625 0.484375,0 0.828125,-0.28125 1.5,-1.265625 L 2.25,-1.234375 C 1.734375,-0.5625 1.5625,-0.40625 1.390625,-0.40625 c -0.09375,0 -0.15625,-0.078125 -0.15625,-0.203125 0,-0.015625 0,-0.015625 0.015625,-0.046875 l 0.921875,-3.5 H 3.0625 Z m 0,0"
                 id="id-66fe361d-1068-4786-9667-fd8a625ae506" />
            </g>
          </g>
        </g>
      </g>
      <path
         style="font-variation-settings:normal;vector-effect:none;fill:none;fill-opacity:1;stroke:#000000;stroke-width:0.25;stroke-linecap:butt;stroke-linejoin:miter;stroke-miterlimit:4;stroke-dasharray:none;stroke-dashoffset:0;stroke-opacity:1;marker-end:url(#Arrow2Lend-3);stop-color:#000000"
         d="m 184.44137,49.407827 h 90.49631"
         id="path857" />
      <path
         style="font-variation-settings:normal;vector-effect:none;fill:none;fill-opacity:1;stroke:#000000;stroke-width:0.25;stroke-linecap:round;stroke-linejoin:round;stroke-miterlimit:4;stroke-dasharray:none;stroke-dashoffset:0;stroke-opacity:1;marker-end:url(#Arrow2Lend-3);stop-color:#000000"
         d="M 229.68863,49.433333 V 17.685807"
         id="path1207" />
      <g
         transform="matrix(0.529167,0,0,0.529167,232.29468,18.590925)"
         ns1:version="1.3.1"
         ns1:texconverter="xelatex"
         ns1:pdfconverter="inkscape"
         ns1:text="$x$"
         ns1:preamble="/home/xiaocy/.config/inkscape/extensions/textext/default_packages.tex"
         ns1:scale="1.5"
         ns1:alignment="middle center"
         ns1:inkscapeversion="1.1.1"
         ns1:jacobian_sqrt="0.529167"
         id="g1667">
        <defs
           id="id-9c95d681-5913-4986-bb81-b9bafcaae1c5">
          <g
             id="g1386">
            <symbol
               overflow="visible"
               id="symbol1380">
              <path
                 style="stroke:none;stroke-width:0"
                 d=""
                 id="path1378" />
            </symbol>
            <symbol
               overflow="visible"
               id="symbol1384">
              <path
                 style="stroke:none;stroke-width:0"
                 d="M 4.375,-1.078125 4.21875,-1.171875 C 4.140625,-1.0625 4.078125,-1.015625 3.984375,-0.875 3.75,-0.5625 3.640625,-0.46875 3.5,-0.46875 c -0.15625,0 -0.25,-0.125 -0.3125,-0.421875 -0.03125,-0.09375 -0.03125,-0.15625 -0.046875,-0.171875 -0.25,-0.984375 -0.375,-1.546875 -0.375,-1.703125 0.453125,-0.8125 0.828125,-1.28125 1.03125,-1.28125 0.0625,0 0.15625,0.03125 0.25,0.09375 0.125,0.0625 0.1875,0.09375 0.296875,0.09375 0.203125,0 0.34375,-0.15625 0.34375,-0.375 0,-0.234375 -0.171875,-0.390625 -0.421875,-0.390625 -0.46875,0 -0.859375,0.375 -1.59375,1.5 L 2.5625,-3.703125 C 2.421875,-4.421875 2.296875,-4.625 2.015625,-4.625 1.78125,-4.625 1.4375,-4.546875 0.78125,-4.328125 L 0.671875,-4.28125 0.71875,-4.125 0.890625,-4.171875 c 0.203125,-0.046875 0.328125,-0.0625 0.40625,-0.0625 0.265625,0 0.328125,0.09375 0.484375,0.71875 L 2.078125,-2.21875 1.21875,-1 C 1,-0.6875 0.796875,-0.5 0.6875,-0.5 0.625,-0.5 0.515625,-0.53125 0.40625,-0.59375 0.265625,-0.65625 0.171875,-0.6875 0.078125,-0.6875 c -0.21875,0 -0.359375,0.15625 -0.359375,0.359375 0,0.28125 0.203125,0.4375 0.515625,0.4375 0.328125,0 0.453125,-0.09375 0.984375,-0.71875 l 0.9375,-1.234375 0.328125,1.25 c 0.125,0.546875 0.265625,0.703125 0.609375,0.703125 0.390625,0 0.671875,-0.25 1.28125,-1.1875 z m 0,0"
                 id="path1382" />
            </symbol>
          </g>
        </defs>
        <g
           id="id-e3a4bf7e-0a38-4495-b68b-d6037cc772d5"
           transform="translate(-154.487,-130.14)">
          <g
             style="fill:#000000;fill-opacity:1"
             id="id-bee80ad0-b72d-4f4d-a302-4c47a0bed866">
            <g
               transform="translate(154.768,134.765)"
               id="g1663">
              <path
                 style="stroke:none;stroke-width:0"
                 d="M 4.375,-1.078125 4.21875,-1.171875 C 4.140625,-1.0625 4.078125,-1.015625 3.984375,-0.875 3.75,-0.5625 3.640625,-0.46875 3.5,-0.46875 c -0.15625,0 -0.25,-0.125 -0.3125,-0.421875 -0.03125,-0.09375 -0.03125,-0.15625 -0.046875,-0.171875 -0.25,-0.984375 -0.375,-1.546875 -0.375,-1.703125 0.453125,-0.8125 0.828125,-1.28125 1.03125,-1.28125 0.0625,0 0.15625,0.03125 0.25,0.09375 0.125,0.0625 0.1875,0.09375 0.296875,0.09375 0.203125,0 0.34375,-0.15625 0.34375,-0.375 0,-0.234375 -0.171875,-0.390625 -0.421875,-0.390625 -0.46875,0 -0.859375,0.375 -1.59375,1.5 L 2.5625,-3.703125 C 2.421875,-4.421875 2.296875,-4.625 2.015625,-4.625 1.78125,-4.625 1.4375,-4.546875 0.78125,-4.328125 L 0.671875,-4.28125 0.71875,-4.125 0.890625,-4.171875 c 0.203125,-0.046875 0.328125,-0.0625 0.40625,-0.0625 0.265625,0 0.328125,0.09375 0.484375,0.71875 L 2.078125,-2.21875 1.21875,-1 C 1,-0.6875 0.796875,-0.5 0.6875,-0.5 0.625,-0.5 0.515625,-0.53125 0.40625,-0.59375 0.265625,-0.65625 0.171875,-0.6875 0.078125,-0.6875 c -0.21875,0 -0.359375,0.15625 -0.359375,0.359375 0,0.28125 0.203125,0.4375 0.515625,0.4375 0.328125,0 0.453125,-0.09375 0.984375,-0.71875 l 0.9375,-1.234375 0.328125,1.25 c 0.125,0.546875 0.265625,0.703125 0.609375,0.703125 0.390625,0 0.671875,-0.25 1.28125,-1.1875 z m 0,0"
                 id="id-361f5de8-f3d7-4e24-8e00-6c34574bfd11" />
            </g>
          </g>
        </g>
      </g>
    </g>
  </g>
</svg>
