<?xml version="1.0" encoding="UTF-8" standalone="no"?>
<!-- Created with Inkscape (http://www.inkscape.org/) -->

<svg
   width="200.93903mm"
   height="42.570709mm"
   viewBox="0 0 200.93903 42.570709"
   version="1.1"
   id="svg5"
   inkscape:version="1.1.1 (3bf5ae0d25, 2021-09-20, custom)"
   sodipodi:docname="FourierSeries.svg"
   xmlns:inkscape="http://www.inkscape.org/namespaces/inkscape"
   xmlns:sodipodi="http://sodipodi.sourceforge.net/DTD/sodipodi-0.dtd"
   xmlns="http://www.w3.org/2000/svg"
   xmlns:svg="http://www.w3.org/2000/svg"
   xmlns:ns1="http://www.iki.fi/pav/software/textext/">
  <sodipodi:namedview
     id="namedview7"
     pagecolor="#ffffff"
     bordercolor="#cccccc"
     borderopacity="1"
     inkscape:pageshadow="0"
     inkscape:pageopacity="1"
     inkscape:pagecheckerboard="0"
     inkscape:document-units="mm"
     showgrid="false"
     inkscape:snap-midpoints="true"
     inkscape:zoom="0.55945568"
     inkscape:cx="403.96408"
     inkscape:cy="-336.04092"
     inkscape:current-layer="layer1"
     inkscape:snap-center="true"
     inkscape:snap-intersection-paths="true" />
  <defs
     id="defs2">
    <marker
       style="overflow:visible"
       id="marker5652"
       refX="0"
       refY="0"
       orient="auto"
       inkscape:stockid="Arrow2Lend"
       inkscape:isstock="true">
      <path
         transform="matrix(-1.1,0,0,-1.1,-1.1,0)"
         d="M 8.7185878,4.0337352 -2.2072895,0.01601326 8.7185884,-4.0017078 c -1.7454984,2.3720609 -1.7354408,5.6174519 -6e-7,8.035443 z"
         style="fill:context-stroke;fill-rule:evenodd;stroke:context-stroke;stroke-width:0.625;stroke-linejoin:round"
         id="path5404" />
    </marker>
    <marker
       style="overflow:visible"
       id="Arrow2Lstart"
       refX="0"
       refY="0"
       orient="auto"
       inkscape:stockid="Arrow2Lstart"
       inkscape:isstock="true">
      <path
         transform="matrix(1.1,0,0,1.1,1.1,0)"
         d="M 8.7185878,4.0337352 -2.2072895,0.01601326 8.7185884,-4.0017078 c -1.7454984,2.3720609 -1.7354408,5.6174519 -6e-7,8.035443 z"
         style="fill:context-stroke;fill-rule:evenodd;stroke:context-stroke;stroke-width:0.625;stroke-linejoin:round"
         id="path5401" />
    </marker>
    <marker
       style="overflow:visible"
       id="Arrow2Lend"
       refX="0"
       refY="0"
       orient="auto"
       inkscape:stockid="Arrow2Lend"
       inkscape:isstock="true">
      <path
         transform="matrix(-1.1,0,0,-1.1,-1.1,0)"
         d="M 8.7185878,4.0337352 -2.2072895,0.01601326 8.7185884,-4.0017078 c -1.7454984,2.3720609 -1.7354408,5.6174519 -6e-7,8.035443 z"
         style="fill:context-stroke;fill-rule:evenodd;stroke:context-stroke;stroke-width:0.625;stroke-linejoin:round"
         id="path960" />
    </marker>
  </defs>
  <g
     inkscape:label="Layer 1"
     inkscape:groupmode="layer"
     id="layer1"
     transform="translate(-23.675884,-82.053091)">
    <g
       transform="matrix(0.529167,0,0,0.529167,115.824,169.503)"
       ns1:version="1.6.1"
       ns1:texconverter="xelatex"
       ns1:pdfconverter="inkscape"
       ns1:text="$f$"
       ns1:preamble="/home/xiaocy/.config/inkscape/extensions/textext/default_packages.tex"
       ns1:scale="1.5"
       ns1:alignment="middle center"
       ns1:stroke-to-path="0"
       ns1:inkscapeversion="1.1.1"
       ns1:jacobian_sqrt="0.529167"
       id="g1309">
      <defs
         id="id-df026503-1674-4280-84aa-167b14a9a87b">
        <g
           id="id-25c44902-e84d-48a7-8413-00d0ba846890">
          <symbol
             overflow="visible"
             id="id-e3cd8b13-0604-4478-bc24-b7e7e73eeb3b">
            <path
               style="stroke:none"
               d=""
               id="id-83f9e1a5-1aa3-46b9-97b5-eb627de010ef" />
          </symbol>
          <symbol
             overflow="visible"
             id="id-3905d31e-9938-4734-aaba-041dea66faf7">
            <path
               style="stroke:none"
               d="m 4.453125,-6.4375 c 0,-0.390625 -0.390625,-0.6875 -0.90625,-0.6875 -0.5,0 -0.90625,0.21875 -1.28125,0.6875 C 1.9375,-6.015625 1.71875,-5.515625 1.40625,-4.5 H 0.4375 L 0.375,-4.15625 H 1.3125 L 0.390625,0.25 C 0.140625,1.390625 -0.1875,1.953125 -0.625,1.953125 -0.75,1.953125 -0.84375,1.875 -0.84375,1.78125 -0.84375,1.75 -0.828125,1.71875 -0.796875,1.671875 -0.75,1.609375 -0.75,1.5625 -0.75,1.5 c 0,-0.21875 -0.1875,-0.390625 -0.40625,-0.390625 -0.21875,0 -0.390625,0.1875 -0.390625,0.421875 0,0.375 0.359375,0.640625 0.828125,0.640625 0.9375,0 1.65625,-1.03125 2.109375,-2.96875 l 0.75,-3.359375 H 3.28125 L 3.34375,-4.5 h -1.125 C 2.515625,-6.15625 2.90625,-6.890625 3.5,-6.890625 c 0.140625,0 0.234375,0.0625 0.234375,0.140625 0,0 -0.015625,0.046875 -0.046875,0.09375 -0.046875,0.078125 -0.0625,0.140625 -0.0625,0.21875 0,0.25 0.15625,0.421875 0.390625,0.421875 0.234375,0 0.4375,-0.1875 0.4375,-0.421875 z m 0,0"
               id="id-fc83eb7c-42fb-4fb9-af24-ca1f0a5af79b" />
          </symbol>
        </g>
      </defs>
    </g>
    <g
       id="g1795">
      <g
         id="id-900a514d-19ed-42c0-b7d5-1b4361169878"
         transform="matrix(0.52916701,0,0,0.52916701,139.39355,52.161325)">
        <g
           style="fill:#000000;fill-opacity:1"
           id="id-c4856642-e3e2-495f-8274-420d388e32a6">
          <g
             transform="translate(156.595,134.765)"
             id="g1513">
            <path
               style="stroke:none"
               d="m 4.453125,-6.4375 c 0,-0.390625 -0.390625,-0.6875 -0.90625,-0.6875 -0.5,0 -0.90625,0.21875 -1.28125,0.6875 C 1.9375,-6.015625 1.71875,-5.515625 1.40625,-4.5 H 0.4375 L 0.375,-4.15625 H 1.3125 L 0.390625,0.25 C 0.140625,1.390625 -0.1875,1.953125 -0.625,1.953125 -0.75,1.953125 -0.84375,1.875 -0.84375,1.78125 -0.84375,1.75 -0.828125,1.71875 -0.796875,1.671875 -0.75,1.609375 -0.75,1.5625 -0.75,1.5 c 0,-0.21875 -0.1875,-0.390625 -0.40625,-0.390625 -0.21875,0 -0.390625,0.1875 -0.390625,0.421875 0,0.375 0.359375,0.640625 0.828125,0.640625 0.9375,0 1.65625,-1.03125 2.109375,-2.96875 l 0.75,-3.359375 H 3.28125 L 3.34375,-4.5 h -1.125 C 2.515625,-6.15625 2.90625,-6.890625 3.5,-6.890625 c 0.140625,0 0.234375,0.0625 0.234375,0.140625 0,0 -0.015625,0.046875 -0.046875,0.09375 -0.046875,0.078125 -0.0625,0.140625 -0.0625,0.21875 0,0.25 0.15625,0.421875 0.390625,0.421875 0.234375,0 0.4375,-0.1875 0.4375,-0.421875 z m 0,0"
               id="id-07cbc4b7-63a2-40a6-ae0d-6a78acadf505" />
          </g>
        </g>
      </g>
      <path
         style="font-variation-settings:normal;vector-effect:none;fill:none;fill-opacity:1;stroke:#000000;stroke-width:0.25;stroke-linecap:butt;stroke-linejoin:miter;stroke-miterlimit:4;stroke-dasharray:none;stroke-dashoffset:0;stroke-opacity:1;marker-end:url(#Arrow2Lend);stop-color:#000000"
         d="m 129.12452,122.5117 h 90.4963"
         id="path1285" />
      <path
         style="font-variation-settings:normal;vector-effect:none;fill:none;fill-opacity:1;stroke:#000000;stroke-width:0.25;stroke-linecap:butt;stroke-linejoin:miter;stroke-miterlimit:4;stroke-dasharray:none;stroke-dashoffset:0;stroke-opacity:1;marker-end:url(#Arrow2Lend);stop-color:#000000"
         d="M 174.37286,122.5117 V 82.966925"
         id="path1287" />
      <g
         transform="matrix(0.529167,0,0,0.529167,177.25825,85.694135)"
         ns1:version="1.6.1"
         ns1:texconverter="xelatex"
         ns1:pdfconverter="inkscape"
         ns1:text="$|A|$"
         ns1:preamble="/home/xiaocy/.config/inkscape/extensions/textext/default_packages.tex"
         ns1:scale="1.5"
         ns1:alignment="middle center"
         ns1:stroke-to-path="0"
         ns1:inkscapeversion="1.1.1"
         ns1:jacobian_sqrt="0.529167"
         id="g1331">
        <defs
           id="id-7987ae4b-8e38-441b-94a0-cabe53e8a9d6">
          <g
             id="id-e0441ce0-9b32-43be-a77f-6916ac62c6ae">
            <symbol
               overflow="visible"
               id="id-65b921b7-16a0-47ac-9ede-50adbbd31cdf">
              <path
                 style="stroke:none"
                 d=""
                 id="id-bde097dd-371b-4616-b9c9-8de0fb444a3c" />
            </symbol>
            <symbol
               overflow="visible"
               id="id-db6b305a-dfef-42a2-86e1-bcf69dff3082">
              <path
                 style="stroke:none"
                 d="M 1.34375,2.03125 V -7.421875 H 0.75 V 2.03125 Z m 0,0"
                 id="id-aef7f683-09ce-46ad-b663-ca0528e75443" />
            </symbol>
            <symbol
               overflow="visible"
               id="id-e3f22e18-36f2-4782-8af5-bf68a8b0c47d">
              <path
                 style="stroke:none"
                 d=""
                 id="id-6faf2d91-abca-4062-85c1-cecd44721492" />
            </symbol>
            <symbol
               overflow="visible"
               id="id-f2ac78af-1fec-40d2-baa0-42362901de5f">
              <path
                 style="stroke:none"
                 d="M 5.921875,0 V -0.171875 C 5.328125,-0.21875 5.25,-0.296875 5.125,-1.078125 l -0.984375,-5.9375 h -0.28125 l -3.046875,5.25 C -0.015625,-0.375 -0.109375,-0.25 -0.53125,-0.171875 V 0 H 1.421875 V -0.171875 C 0.890625,-0.21875 0.8125,-0.265625 0.8125,-0.53125 c 0,-0.203125 0.03125,-0.296875 0.203125,-0.65625 l 0.59375,-1.1875 h 2.3125 L 4.140625,-1 c 0,0.09375 0.015625,0.1875 0.015625,0.28125 0,0.390625 -0.140625,0.484375 -0.8125,0.546875 V 0 Z M 3.875,-2.75 H 1.84375 l 1.5625,-2.734375 z m 0,0"
                 id="id-21eaa3a9-ae62-4252-ad6f-567940ecb766" />
            </symbol>
          </g>
        </defs>
        <g
           id="id-a268df3a-a381-46f6-9b99-918477115d77"
           transform="translate(-155.938,-127.343)">
          <g
             style="fill:#000000;fill-opacity:1"
             id="id-f304af3d-c999-471f-94a6-2cc0ecace8e5">
            <g
               transform="translate(155.188,134.765)"
               id="g1668">
              <path
                 style="stroke:none"
                 d="M 1.34375,2.03125 V -7.421875 H 0.75 V 2.03125 Z m 0,0"
                 id="id-475458db-b554-46d2-bbaf-e58fdc01abb8" />
            </g>
          </g>
          <g
             style="fill:#000000;fill-opacity:1"
             id="id-b2b40497-071c-4626-808d-99f4e0e3d9e6">
            <g
               transform="translate(158.496,134.765)"
               id="g1672">
              <path
                 style="stroke:none"
                 d="M 5.921875,0 V -0.171875 C 5.328125,-0.21875 5.25,-0.296875 5.125,-1.078125 l -0.984375,-5.9375 h -0.28125 l -3.046875,5.25 C -0.015625,-0.375 -0.109375,-0.25 -0.53125,-0.171875 V 0 H 1.421875 V -0.171875 C 0.890625,-0.21875 0.8125,-0.265625 0.8125,-0.53125 c 0,-0.203125 0.03125,-0.296875 0.203125,-0.65625 l 0.59375,-1.1875 h 2.3125 L 4.140625,-1 c 0,0.09375 0.015625,0.1875 0.015625,0.28125 0,0.390625 -0.140625,0.484375 -0.8125,0.546875 V 0 Z M 3.875,-2.75 H 1.84375 l 1.5625,-2.734375 z m 0,0"
                 id="id-fc7c75e5-7b39-4480-9326-a1716d838c08" />
            </g>
          </g>
          <g
             style="fill:#000000;fill-opacity:1"
             id="id-5a93a758-2f99-48ca-8734-068ffbc50160">
            <g
               transform="translate(165.468,134.765)"
               id="g1676">
              <path
                 style="stroke:none"
                 d="M 1.34375,2.03125 V -7.421875 H 0.75 V 2.03125 Z m 0,0"
                 id="id-52bcd48f-dd77-48c1-b536-656112e2ebaf" />
            </g>
          </g>
        </g>
      </g>
      <ellipse
         style="font-variation-settings:normal;vector-effect:none;fill:#000000;fill-opacity:1;fill-rule:evenodd;stroke:#000000;stroke-width:0.25;stroke-linecap:butt;stroke-linejoin:miter;stroke-miterlimit:4;stroke-dasharray:none;stroke-dashoffset:0;stroke-opacity:1;stop-color:#000000"
         id="circle3645"
         cx="174.37267"
         cy="122.5117"
         rx="0.43262178"
         ry="0.43261001" />
      <path
         style="font-variation-settings:normal;vector-effect:none;fill:none;fill-opacity:1;stroke:#000000;stroke-width:0.25;stroke-linecap:round;stroke-linejoin:round;stroke-miterlimit:4;stroke-dasharray:none;stroke-dashoffset:0;stroke-opacity:1;stop-color:#000000"
         d="M 179.07721,122.50671 V 95.669007"
         id="path2638" />
      <path
         style="font-variation-settings:normal;vector-effect:none;fill:none;fill-opacity:1;stroke:#000000;stroke-width:0.25;stroke-linecap:round;stroke-linejoin:round;stroke-miterlimit:4;stroke-dasharray:none;stroke-dashoffset:0;stroke-opacity:1;stop-color:#000000"
         d="M 188.4863,122.50671 V 106.35278"
         id="path2640" />
      <path
         style="font-variation-settings:normal;vector-effect:none;fill:none;fill-opacity:1;stroke:#000000;stroke-width:0.25;stroke-linecap:round;stroke-linejoin:round;stroke-miterlimit:4;stroke-dasharray:none;stroke-dashoffset:0;stroke-opacity:1;stop-color:#000000"
         d="M 197.89539,122.50671 V 112.9203"
         id="path2642" />
      <path
         style="font-variation-settings:normal;vector-effect:none;fill:none;fill-opacity:1;stroke:#000000;stroke-width:0.25;stroke-linecap:round;stroke-linejoin:round;stroke-miterlimit:4;stroke-dasharray:none;stroke-dashoffset:0;stroke-opacity:1;stop-color:#000000"
         d="m 207.30447,122.50671 v -4.72819"
         id="path2644" />
      <ellipse
         style="font-variation-settings:normal;vector-effect:none;fill:#000000;fill-opacity:1;fill-rule:evenodd;stroke:#000000;stroke-width:0.25;stroke-linecap:butt;stroke-linejoin:miter;stroke-miterlimit:4;stroke-dasharray:none;stroke-dashoffset:0;stroke-opacity:1;stop-color:#000000"
         id="circle4049"
         cx="179.07721"
         cy="95.669006"
         rx="0.43262178"
         ry="0.43261001" />
      <ellipse
         style="font-variation-settings:normal;vector-effect:none;fill:#000000;fill-opacity:1;fill-rule:evenodd;stroke:#000000;stroke-width:0.25;stroke-linecap:butt;stroke-linejoin:miter;stroke-miterlimit:4;stroke-dasharray:none;stroke-dashoffset:0;stroke-opacity:1;stop-color:#000000"
         id="circle4051"
         cx="183.78175"
         cy="122.51171"
         rx="0.43262178"
         ry="0.43261001" />
      <ellipse
         style="font-variation-settings:normal;vector-effect:none;fill:#000000;fill-opacity:1;fill-rule:evenodd;stroke:#000000;stroke-width:0.25;stroke-linecap:butt;stroke-linejoin:miter;stroke-miterlimit:4;stroke-dasharray:none;stroke-dashoffset:0;stroke-opacity:1;stop-color:#000000"
         id="circle4649"
         cx="188.4863"
         cy="106.35278"
         rx="0.43262178"
         ry="0.43261001" />
      <ellipse
         style="font-variation-settings:normal;vector-effect:none;fill:#000000;fill-opacity:1;fill-rule:evenodd;stroke:#000000;stroke-width:0.25;stroke-linecap:butt;stroke-linejoin:miter;stroke-miterlimit:4;stroke-dasharray:none;stroke-dashoffset:0;stroke-opacity:1;stop-color:#000000"
         id="circle4651"
         cx="193.19084"
         cy="122.51171"
         rx="0.43262178"
         ry="0.43261001" />
      <ellipse
         style="font-variation-settings:normal;vector-effect:none;fill:#000000;fill-opacity:1;fill-rule:evenodd;stroke:#000000;stroke-width:0.25;stroke-linecap:butt;stroke-linejoin:miter;stroke-miterlimit:4;stroke-dasharray:none;stroke-dashoffset:0;stroke-opacity:1;stop-color:#000000"
         id="circle4653"
         cx="197.89539"
         cy="112.9203"
         rx="0.43262178"
         ry="0.43261001" />
      <ellipse
         style="font-variation-settings:normal;vector-effect:none;fill:#000000;fill-opacity:1;fill-rule:evenodd;stroke:#000000;stroke-width:0.25;stroke-linecap:butt;stroke-linejoin:miter;stroke-miterlimit:4;stroke-dasharray:none;stroke-dashoffset:0;stroke-opacity:1;stop-color:#000000"
         id="circle4655"
         cx="202.59993"
         cy="122.51171"
         rx="0.43262178"
         ry="0.43261001" />
      <ellipse
         style="font-variation-settings:normal;vector-effect:none;fill:#000000;fill-opacity:1;fill-rule:evenodd;stroke:#000000;stroke-width:0.25;stroke-linecap:butt;stroke-linejoin:miter;stroke-miterlimit:4;stroke-dasharray:none;stroke-dashoffset:0;stroke-opacity:1;stop-color:#000000"
         id="circle4657"
         cx="207.30447"
         cy="117.77852"
         rx="0.43262178"
         ry="0.43261001" />
      <path
         style="font-variation-settings:normal;vector-effect:none;fill:none;fill-opacity:1;stroke:#000000;stroke-width:0.25;stroke-linecap:round;stroke-linejoin:round;stroke-miterlimit:4;stroke-dasharray:none;stroke-dashoffset:0;stroke-opacity:1;stop-color:#000000"
         d="M 169.66805,122.50671 V 95.669007"
         id="path4912" />
      <path
         style="font-variation-settings:normal;vector-effect:none;fill:none;fill-opacity:1;stroke:#000000;stroke-width:0.25;stroke-linecap:round;stroke-linejoin:round;stroke-miterlimit:4;stroke-dasharray:none;stroke-dashoffset:0;stroke-opacity:1;stop-color:#000000"
         d="M 160.25896,122.50671 V 106.35278"
         id="path4914" />
      <path
         style="font-variation-settings:normal;vector-effect:none;fill:none;fill-opacity:1;stroke:#000000;stroke-width:0.25;stroke-linecap:round;stroke-linejoin:round;stroke-miterlimit:4;stroke-dasharray:none;stroke-dashoffset:0;stroke-opacity:1;stop-color:#000000"
         d="M 150.84987,122.50671 V 112.9203"
         id="path4916" />
      <path
         style="font-variation-settings:normal;vector-effect:none;fill:none;fill-opacity:1;stroke:#000000;stroke-width:0.25;stroke-linecap:round;stroke-linejoin:round;stroke-miterlimit:4;stroke-dasharray:none;stroke-dashoffset:0;stroke-opacity:1;stop-color:#000000"
         d="m 141.44079,122.50671 v -4.72819"
         id="path4918" />
      <ellipse
         style="font-variation-settings:normal;vector-effect:none;fill:#000000;fill-opacity:1;fill-rule:evenodd;stroke:#000000;stroke-width:0.25;stroke-linecap:butt;stroke-linejoin:miter;stroke-miterlimit:4;stroke-dasharray:none;stroke-dashoffset:0;stroke-opacity:1;stop-color:#000000"
         id="circle4920"
         cx="-169.66805"
         cy="95.669006"
         transform="scale(-1,1)"
         rx="0.43262178"
         ry="0.43261001" />
      <ellipse
         style="font-variation-settings:normal;vector-effect:none;fill:#000000;fill-opacity:1;fill-rule:evenodd;stroke:#000000;stroke-width:0.25;stroke-linecap:butt;stroke-linejoin:miter;stroke-miterlimit:4;stroke-dasharray:none;stroke-dashoffset:0;stroke-opacity:1;stop-color:#000000"
         id="circle4922"
         cx="-164.9635"
         cy="122.51171"
         transform="scale(-1,1)"
         rx="0.43262178"
         ry="0.43261001" />
      <ellipse
         style="font-variation-settings:normal;vector-effect:none;fill:#000000;fill-opacity:1;fill-rule:evenodd;stroke:#000000;stroke-width:0.25;stroke-linecap:butt;stroke-linejoin:miter;stroke-miterlimit:4;stroke-dasharray:none;stroke-dashoffset:0;stroke-opacity:1;stop-color:#000000"
         id="circle4924"
         cx="-160.25896"
         cy="106.35278"
         transform="scale(-1,1)"
         rx="0.43262178"
         ry="0.43261001" />
      <ellipse
         style="font-variation-settings:normal;vector-effect:none;fill:#000000;fill-opacity:1;fill-rule:evenodd;stroke:#000000;stroke-width:0.25;stroke-linecap:butt;stroke-linejoin:miter;stroke-miterlimit:4;stroke-dasharray:none;stroke-dashoffset:0;stroke-opacity:1;stop-color:#000000"
         id="circle4926"
         cx="-155.55441"
         cy="122.51171"
         transform="scale(-1,1)"
         rx="0.43262178"
         ry="0.43261001" />
      <ellipse
         style="font-variation-settings:normal;vector-effect:none;fill:#000000;fill-opacity:1;fill-rule:evenodd;stroke:#000000;stroke-width:0.25;stroke-linecap:butt;stroke-linejoin:miter;stroke-miterlimit:4;stroke-dasharray:none;stroke-dashoffset:0;stroke-opacity:1;stop-color:#000000"
         id="circle4928"
         cx="-150.84987"
         cy="112.9203"
         transform="scale(-1,1)"
         rx="0.43262178"
         ry="0.43261001" />
      <ellipse
         style="font-variation-settings:normal;vector-effect:none;fill:#000000;fill-opacity:1;fill-rule:evenodd;stroke:#000000;stroke-width:0.25;stroke-linecap:butt;stroke-linejoin:miter;stroke-miterlimit:4;stroke-dasharray:none;stroke-dashoffset:0;stroke-opacity:1;stop-color:#000000"
         id="circle4930"
         cx="-146.14532"
         cy="122.51171"
         transform="scale(-1,1)"
         rx="0.43262178"
         ry="0.43261001" />
      <ellipse
         style="font-variation-settings:normal;vector-effect:none;fill:#000000;fill-opacity:1;fill-rule:evenodd;stroke:#000000;stroke-width:0.25;stroke-linecap:butt;stroke-linejoin:miter;stroke-miterlimit:4;stroke-dasharray:none;stroke-dashoffset:0;stroke-opacity:1;stop-color:#000000"
         id="circle4932"
         cx="-141.44078"
         cy="117.77852"
         transform="scale(-1,1)"
         rx="0.43262178"
         ry="0.43261001" />
      <path
         style="font-variation-settings:normal;vector-effect:none;fill:none;fill-opacity:1;stroke:#000000;stroke-width:0.25;stroke-linecap:round;stroke-linejoin:round;stroke-miterlimit:4;stroke-dasharray:none;stroke-dashoffset:0;stroke-opacity:1;stop-color:#000000"
         d="m 197.89539,92.063105 v 4.13526"
         id="path6042" />
      <path
         style="font-variation-settings:normal;vector-effect:none;fill:none;fill-opacity:1;stroke:#000000;stroke-width:0.25;stroke-linecap:round;stroke-linejoin:round;stroke-miterlimit:4;stroke-dasharray:none;stroke-dashoffset:0;stroke-opacity:1;marker-end:url(#marker5652);stop-color:#000000"
         d="m 189.44959,94.130735 h 7.93014"
         id="path6266" />
      <path
         style="font-variation-settings:normal;vector-effect:none;fill:none;fill-opacity:1;stroke:#000000;stroke-width:0.25;stroke-linecap:round;stroke-linejoin:round;stroke-miterlimit:4;stroke-dasharray:none;stroke-dashoffset:0;stroke-opacity:1;stop-color:#000000"
         d="m 202.59993,92.063105 v 4.13526"
         id="path6366" />
      <path
         style="font-variation-settings:normal;vector-effect:none;fill:none;fill-opacity:1;stroke:#000000;stroke-width:0.25;stroke-linecap:round;stroke-linejoin:round;stroke-miterlimit:4;stroke-dasharray:none;stroke-dashoffset:0;stroke-opacity:1;marker-end:url(#marker5652);stop-color:#000000"
         d="m 210.95021,94.130735 h -7.93015"
         id="path6448" />
      <g
         transform="matrix(0.529167,0,0,0.529167,197.79917,85.67106)"
         ns1:version="1.6.1"
         ns1:texconverter="xelatex"
         ns1:pdfconverter="inkscape"
         ns1:text="$\\Delta f$"
         ns1:preamble="/home/xiaocy/.config/inkscape/extensions/textext/default_packages.tex"
         ns1:scale="1.5"
         ns1:alignment="middle center"
         ns1:stroke-to-path="0"
         ns1:inkscapeversion="1.1.1"
         ns1:jacobian_sqrt="0.529167"
         id="g6711">
        <defs
           id="id-2238c02a-b09c-4676-ade4-070a527823bd">
          <g
             id="id-df424bd3-5632-4ec8-a121-a06c4a890c76">
            <symbol
               overflow="visible"
               id="id-68d93073-e595-4f16-b247-5e3620634cc8">
              <path
                 style="stroke:none;stroke-width:0"
                 d=""
                 id="id-a61e7151-83a7-4465-9be0-f15aab450fc9" />
            </symbol>
            <symbol
               overflow="visible"
               id="id-db62cb2a-7c71-47ec-a273-211d3022226f">
              <path
                 style="stroke:none;stroke-width:0"
                 d="m 6.484375,0 -2.9375,-7.09375 H 3.375 L 0.25,0 Z M 5.265625,-0.4375 H 0.9375 l 2.25,-5.078125 z m 0,0"
                 id="id-639192a5-b905-4cd5-9e9a-eeea6dc9a5f7" />
            </symbol>
            <symbol
               overflow="visible"
               id="id-3ee3089b-edae-4193-aff5-4542b03811cb">
              <path
                 style="stroke:none;stroke-width:0"
                 d=""
                 id="id-dd8a26af-fe21-4f62-9238-9f6d3e1b3754" />
            </symbol>
            <symbol
               overflow="visible"
               id="id-ea2d22cb-ce9c-47ef-9e20-1a51ab34a27f">
              <path
                 style="stroke:none;stroke-width:0"
                 d="m 4.453125,-6.4375 c 0,-0.390625 -0.390625,-0.6875 -0.90625,-0.6875 -0.5,0 -0.90625,0.21875 -1.28125,0.6875 C 1.9375,-6.015625 1.71875,-5.515625 1.40625,-4.5 H 0.4375 L 0.375,-4.15625 H 1.3125 L 0.390625,0.25 C 0.140625,1.390625 -0.1875,1.953125 -0.625,1.953125 -0.75,1.953125 -0.84375,1.875 -0.84375,1.78125 -0.84375,1.75 -0.828125,1.71875 -0.796875,1.671875 -0.75,1.609375 -0.75,1.5625 -0.75,1.5 c 0,-0.21875 -0.1875,-0.390625 -0.40625,-0.390625 -0.21875,0 -0.390625,0.1875 -0.390625,0.421875 0,0.375 0.359375,0.640625 0.828125,0.640625 0.9375,0 1.65625,-1.03125 2.109375,-2.96875 l 0.75,-3.359375 H 3.28125 L 3.34375,-4.5 h -1.125 C 2.515625,-6.15625 2.90625,-6.890625 3.5,-6.890625 c 0.140625,0 0.234375,0.0625 0.234375,0.140625 0,0 -0.015625,0.046875 -0.046875,0.09375 -0.046875,0.078125 -0.0625,0.140625 -0.0625,0.21875 0,0.25 0.15625,0.421875 0.390625,0.421875 0.234375,0 0.4375,-0.1875 0.4375,-0.421875 z m 0,0"
                 id="id-3eed6057-9eb3-4ddb-a9b5-eafbab5b7235" />
            </symbol>
          </g>
        </defs>
        <g
           id="id-d4ad2755-1506-4e6c-9afc-42bced2d9812"
           transform="translate(-155.018,-127.64)">
          <g
             style="fill:#000000;fill-opacity:1"
             id="id-c698022d-fd5e-419b-b927-526719695c66">
            <g
               transform="translate(154.768,134.765)"
               id="g6703">
              <path
                 style="stroke:none;stroke-width:0"
                 d="m 6.484375,0 -2.9375,-7.09375 H 3.375 L 0.25,0 Z M 5.265625,-0.4375 H 0.9375 l 2.25,-5.078125 z m 0,0"
                 id="id-b15131f4-ccfc-403b-bbf1-bd432bf64894" />
            </g>
          </g>
          <g
             style="fill:#000000;fill-opacity:1"
             id="id-dd9c7f67-58fa-48fc-9a4b-d6cb02e45079">
            <g
               transform="translate(163.347,134.765)"
               id="g6707">
              <path
                 style="stroke:none;stroke-width:0"
                 d="m 4.453125,-6.4375 c 0,-0.390625 -0.390625,-0.6875 -0.90625,-0.6875 -0.5,0 -0.90625,0.21875 -1.28125,0.6875 C 1.9375,-6.015625 1.71875,-5.515625 1.40625,-4.5 H 0.4375 L 0.375,-4.15625 H 1.3125 L 0.390625,0.25 C 0.140625,1.390625 -0.1875,1.953125 -0.625,1.953125 -0.75,1.953125 -0.84375,1.875 -0.84375,1.78125 -0.84375,1.75 -0.828125,1.71875 -0.796875,1.671875 -0.75,1.609375 -0.75,1.5625 -0.75,1.5 c 0,-0.21875 -0.1875,-0.390625 -0.40625,-0.390625 -0.21875,0 -0.390625,0.1875 -0.390625,0.421875 0,0.375 0.359375,0.640625 0.828125,0.640625 0.9375,0 1.65625,-1.03125 2.109375,-2.96875 l 0.75,-3.359375 H 3.28125 L 3.34375,-4.5 h -1.125 C 2.515625,-6.15625 2.90625,-6.890625 3.5,-6.890625 c 0.140625,0 0.234375,0.0625 0.234375,0.140625 0,0 -0.015625,0.046875 -0.046875,0.09375 -0.046875,0.078125 -0.0625,0.140625 -0.0625,0.21875 0,0.25 0.15625,0.421875 0.390625,0.421875 0.234375,0 0.4375,-0.1875 0.4375,-0.421875 z m 0,0"
                 id="id-c94bfd41-f251-4028-8016-e8b27aba53de" />
            </g>
          </g>
        </g>
      </g>
    </g>
    <g
       id="g2621">
      <g
         transform="matrix(0.529167,0,0,0.529167,116.85964,106.12848)"
         ns1:version="1.3.1"
         ns1:texconverter="xelatex"
         ns1:pdfconverter="inkscape"
         ns1:text="$t$"
         ns1:preamble="/home/xiaocy/.config/inkscape/extensions/textext/default_packages.tex"
         ns1:scale="1.5"
         ns1:alignment="middle center"
         ns1:inkscapeversion="1.1.1"
         ns1:jacobian_sqrt="0.529167"
         id="g1587">
        <defs
           id="id-d7b3bdb9-33f8-4642-b1a4-370e18c040dc">
          <g
             id="id-2fc2241f-4f58-41df-aaa1-ec36bf9e66b4">
            <symbol
               overflow="visible"
               id="id-ff9eacb4-c5b1-4a56-84d7-0641ab3759af">
              <path
                 style="stroke:none;stroke-width:0"
                 d=""
                 id="id-bb5af441-cf86-4646-862c-a4b2d452e30a" />
            </symbol>
            <symbol
               overflow="visible"
               id="id-d94eac51-68fa-4f5c-ad55-2624c4900f72">
              <path
                 style="stroke:none;stroke-width:0"
                 d="M 3.109375,-4.5 H 2.265625 L 2.5625,-5.578125 C 2.578125,-5.59375 2.578125,-5.625 2.578125,-5.625 c 0,-0.078125 -0.03125,-0.109375 -0.09375,-0.109375 -0.0625,0 -0.09375,0.015625 -0.15625,0.09375 -1,1.296875 -1.734375,1.078125 -1.734375,1.421875 0,0.015625 0,0.03125 0.015625,0.0625 h 0.78125 L 0.625,-1.265625 c -0.03125,0.125 -0.234375,0.78125 -0.234375,0.984375 0,0.234375 0.21875,0.390625 0.5,0.390625 0.484375,0 0.828125,-0.28125 1.5,-1.265625 L 2.25,-1.234375 C 1.734375,-0.5625 1.5625,-0.40625 1.390625,-0.40625 c -0.09375,0 -0.15625,-0.078125 -0.15625,-0.203125 0,-0.015625 0,-0.015625 0.015625,-0.046875 l 0.921875,-3.5 H 3.0625 Z m 0,0"
                 id="id-439d7178-c053-4643-949e-a961311caaa8" />
            </symbol>
          </g>
        </defs>
        <g
           id="id-4fd03d23-cb36-4051-bdd7-d1ba71558a28"
           transform="translate(-155.117,-129.031)">
          <g
             style="fill:#000000;fill-opacity:1"
             id="id-59610206-db41-4cde-ba80-f0aea91296ac">
            <g
               transform="translate(154.726,134.765)"
               id="g1583">
              <path
                 style="stroke:none;stroke-width:0"
                 d="M 3.109375,-4.5 H 2.265625 L 2.5625,-5.578125 C 2.578125,-5.59375 2.578125,-5.625 2.578125,-5.625 c 0,-0.078125 -0.03125,-0.109375 -0.09375,-0.109375 -0.0625,0 -0.09375,0.015625 -0.15625,0.09375 -1,1.296875 -1.734375,1.078125 -1.734375,1.421875 0,0.015625 0,0.03125 0.015625,0.0625 h 0.78125 L 0.625,-1.265625 c -0.03125,0.125 -0.234375,0.78125 -0.234375,0.984375 0,0.234375 0.21875,0.390625 0.5,0.390625 0.484375,0 0.828125,-0.28125 1.5,-1.265625 L 2.25,-1.234375 C 1.734375,-0.5625 1.5625,-0.40625 1.390625,-0.40625 c -0.09375,0 -0.15625,-0.078125 -0.15625,-0.203125 0,-0.015625 0,-0.015625 0.015625,-0.046875 l 0.921875,-3.5 H 3.0625 Z m 0,0"
                 id="id-66fe361d-1068-4786-9667-fd8a625ae506" />
            </g>
          </g>
        </g>
      </g>
      <path
         style="font-variation-settings:normal;vector-effect:none;fill:none;fill-opacity:1;stroke:#000000;stroke-width:0.25;stroke-linecap:butt;stroke-linejoin:miter;stroke-miterlimit:4;stroke-dasharray:none;stroke-dashoffset:0;stroke-opacity:1;marker-end:url(#Arrow2Lend);stop-color:#000000"
         d="M 23.675884,107.33854 H 114.17219"
         id="path857" />
      <path
         style="font-variation-settings:normal;vector-effect:none;fill:none;fill-opacity:1;stroke:#000000;stroke-width:0.25;stroke-linecap:round;stroke-linejoin:round;stroke-miterlimit:4;stroke-dasharray:none;stroke-dashoffset:0;stroke-opacity:1;marker-end:url(#Arrow2Lend);stop-color:#000000"
         d="M 68.924036,124.49054 V 82.471017"
         id="path1207" />
      <g
         transform="matrix(0.529167,0,0,0.529167,71.922049,82.538449)"
         ns1:version="1.3.1"
         ns1:texconverter="xelatex"
         ns1:pdfconverter="inkscape"
         ns1:text="$x$"
         ns1:preamble="/home/xiaocy/.config/inkscape/extensions/textext/default_packages.tex"
         ns1:scale="1.5"
         ns1:alignment="middle center"
         ns1:inkscapeversion="1.1.1"
         ns1:jacobian_sqrt="0.529167"
         id="g1667">
        <defs
           id="id-9c95d681-5913-4986-bb81-b9bafcaae1c5">
          <g
             id="id-0f2a682b-2a31-41cd-a075-dfd37cdfd15c">
            <symbol
               overflow="visible"
               id="id-793796cf-d032-4838-b10e-2aec5144d561">
              <path
                 style="stroke:none;stroke-width:0"
                 d=""
                 id="id-73a261bb-3146-4548-9ff8-b64b0fa60315" />
            </symbol>
            <symbol
               overflow="visible"
               id="id-f601a531-5406-478a-9573-8b9d8c62b7f0">
              <path
                 style="stroke:none;stroke-width:0"
                 d="M 4.375,-1.078125 4.21875,-1.171875 C 4.140625,-1.0625 4.078125,-1.015625 3.984375,-0.875 3.75,-0.5625 3.640625,-0.46875 3.5,-0.46875 c -0.15625,0 -0.25,-0.125 -0.3125,-0.421875 -0.03125,-0.09375 -0.03125,-0.15625 -0.046875,-0.171875 -0.25,-0.984375 -0.375,-1.546875 -0.375,-1.703125 0.453125,-0.8125 0.828125,-1.28125 1.03125,-1.28125 0.0625,0 0.15625,0.03125 0.25,0.09375 0.125,0.0625 0.1875,0.09375 0.296875,0.09375 0.203125,0 0.34375,-0.15625 0.34375,-0.375 0,-0.234375 -0.171875,-0.390625 -0.421875,-0.390625 -0.46875,0 -0.859375,0.375 -1.59375,1.5 L 2.5625,-3.703125 C 2.421875,-4.421875 2.296875,-4.625 2.015625,-4.625 1.78125,-4.625 1.4375,-4.546875 0.78125,-4.328125 L 0.671875,-4.28125 0.71875,-4.125 0.890625,-4.171875 c 0.203125,-0.046875 0.328125,-0.0625 0.40625,-0.0625 0.265625,0 0.328125,0.09375 0.484375,0.71875 L 2.078125,-2.21875 1.21875,-1 C 1,-0.6875 0.796875,-0.5 0.6875,-0.5 0.625,-0.5 0.515625,-0.53125 0.40625,-0.59375 0.265625,-0.65625 0.171875,-0.6875 0.078125,-0.6875 c -0.21875,0 -0.359375,0.15625 -0.359375,0.359375 0,0.28125 0.203125,0.4375 0.515625,0.4375 0.328125,0 0.453125,-0.09375 0.984375,-0.71875 l 0.9375,-1.234375 0.328125,1.25 c 0.125,0.546875 0.265625,0.703125 0.609375,0.703125 0.390625,0 0.671875,-0.25 1.28125,-1.1875 z m 0,0"
                 id="id-31686832-4645-48c0-a56d-915d1378a09b" />
            </symbol>
          </g>
        </defs>
        <g
           id="id-e3a4bf7e-0a38-4495-b68b-d6037cc772d5"
           transform="translate(-154.487,-130.14)">
          <g
             style="fill:#000000;fill-opacity:1"
             id="id-bee80ad0-b72d-4f4d-a302-4c47a0bed866">
            <g
               transform="translate(154.768,134.765)"
               id="g1663">
              <path
                 style="stroke:none;stroke-width:0"
                 d="M 4.375,-1.078125 4.21875,-1.171875 C 4.140625,-1.0625 4.078125,-1.015625 3.984375,-0.875 3.75,-0.5625 3.640625,-0.46875 3.5,-0.46875 c -0.15625,0 -0.25,-0.125 -0.3125,-0.421875 -0.03125,-0.09375 -0.03125,-0.15625 -0.046875,-0.171875 -0.25,-0.984375 -0.375,-1.546875 -0.375,-1.703125 0.453125,-0.8125 0.828125,-1.28125 1.03125,-1.28125 0.0625,0 0.15625,0.03125 0.25,0.09375 0.125,0.0625 0.1875,0.09375 0.296875,0.09375 0.203125,0 0.34375,-0.15625 0.34375,-0.375 0,-0.234375 -0.171875,-0.390625 -0.421875,-0.390625 -0.46875,0 -0.859375,0.375 -1.59375,1.5 L 2.5625,-3.703125 C 2.421875,-4.421875 2.296875,-4.625 2.015625,-4.625 1.78125,-4.625 1.4375,-4.546875 0.78125,-4.328125 L 0.671875,-4.28125 0.71875,-4.125 0.890625,-4.171875 c 0.203125,-0.046875 0.328125,-0.0625 0.40625,-0.0625 0.265625,0 0.328125,0.09375 0.484375,0.71875 L 2.078125,-2.21875 1.21875,-1 C 1,-0.6875 0.796875,-0.5 0.6875,-0.5 0.625,-0.5 0.515625,-0.53125 0.40625,-0.59375 0.265625,-0.65625 0.171875,-0.6875 0.078125,-0.6875 c -0.21875,0 -0.359375,0.15625 -0.359375,0.359375 0,0.28125 0.203125,0.4375 0.515625,0.4375 0.328125,0 0.453125,-0.09375 0.984375,-0.71875 l 0.9375,-1.234375 0.328125,1.25 c 0.125,0.546875 0.265625,0.703125 0.609375,0.703125 0.390625,0 0.671875,-0.25 1.28125,-1.1875 z m 0,0"
                 id="id-361f5de8-f3d7-4e24-8e00-6c34574bfd11" />
            </g>
          </g>
        </g>
      </g>
      <path
         style="font-variation-settings:normal;vector-effect:none;fill:none;fill-opacity:1;stroke:#000000;stroke-width:0.25;stroke-linecap:butt;stroke-linejoin:miter;stroke-miterlimit:4;stroke-dasharray:none;stroke-dashoffset:0;stroke-opacity:1;stop-color:#000000"
         d="m 34.366562,94.333008 h 13.82299 V 120.34407 H 62.012538 V 94.333008 h 13.822994 v 26.011062 h 13.82299 V 94.333008 h 13.822988 v 26.011062"
         id="path4130" />
      <path
         style="font-variation-settings:normal;vector-effect:none;fill:none;fill-opacity:1;stroke:#000000;stroke-width:0.25;stroke-linecap:butt;stroke-linejoin:miter;stroke-miterlimit:4;stroke-dasharray:none;stroke-dashoffset:0;stroke-opacity:1;stop-color:#000000"
         d="M 34.366562,94.333008 V 120.34407"
         id="path4132" />
      <path
         style="font-variation-settings:normal;fill:none;fill-opacity:1;stroke:#000000;stroke-width:0.25;stroke-linecap:butt;stroke-linejoin:miter;stroke-miterlimit:4;stroke-dasharray:1, 1;stroke-dashoffset:0;stroke-opacity:1;stop-color:#000000"
         d="m 103.48151,120.34407 h 7.19165"
         id="path4487" />
      <path
         style="font-variation-settings:normal;fill:none;fill-opacity:1;stroke:#000000;stroke-width:0.25;stroke-linecap:butt;stroke-linejoin:miter;stroke-miterlimit:4;stroke-dasharray:1, 1;stroke-dashoffset:0;stroke-opacity:1;stop-color:#000000"
         d="m 27.174912,120.34407 h 7.19165"
         id="path4569" />
      <path
         style="font-variation-settings:normal;vector-effect:none;fill:none;fill-opacity:1;stroke:#000000;stroke-width:0.25;stroke-linecap:round;stroke-linejoin:round;stroke-miterlimit:4;stroke-dasharray:none;stroke-dashoffset:0;stroke-opacity:1;stop-color:#000000"
         d="m 62.012538,84.687109 v 4.63721"
         id="path5266" />
      <path
         style="font-variation-settings:normal;vector-effect:none;fill:none;fill-opacity:1;stroke:#000000;stroke-width:0.25;stroke-linecap:butt;stroke-linejoin:miter;stroke-miterlimit:4;stroke-dasharray:none;stroke-dashoffset:0;stroke-opacity:1;marker-start:url(#Arrow2Lstart);marker-end:url(#marker5652);stop-color:#000000"
         d="M 34.823933,87.005719 H 61.572258"
         id="path5381" />
      <g
         transform="matrix(0.529167,0,0,0.529167,47.470455,87.966839)"
         ns1:version="1.6.1"
         ns1:texconverter="xelatex"
         ns1:pdfconverter="inkscape"
         ns1:text="$T$"
         ns1:preamble="/home/xiaocy/.config/inkscape/extensions/textext/default_packages.tex"
         ns1:scale="1.5"
         ns1:alignment="middle center"
         ns1:stroke-to-path="0"
         ns1:inkscapeversion="1.1.1"
         ns1:jacobian_sqrt="0.529167"
         id="g5780">
        <defs
           id="id-e0efe080-b46b-4c8c-b8a8-d8c514083eec">
          <g
             id="id-a01aea4d-0488-4652-b50b-20331e7d1bb2">
            <symbol
               overflow="visible"
               id="id-8bb353fc-bf5c-4fe9-a336-e5c7e96bf304">
              <path
                 style="stroke:none"
                 d=""
                 id="id-761bbd44-493d-4ceb-baa7-7899093bdcb4" />
            </symbol>
            <symbol
               overflow="visible"
               id="id-fcb413b7-faf4-483b-a5c2-fbff3ec5dacb">
              <path
                 style="stroke:none"
                 d="M 6.640625,-6.859375 H 1.0625 l -0.4375,1.625 0.1875,0.03125 c 0.515625,-1.078125 0.859375,-1.28125 2.28125,-1.28125 0.0625,0 0.140625,0 0.21875,0 L 1.796875,-0.9375 C 1.625,-0.390625 1.375,-0.21875 0.6875,-0.171875 V 0 h 3.046875 v -0.171875 l -0.40625,-0.03125 c -0.4375,-0.03125 -0.546875,-0.125 -0.546875,-0.453125 0,-0.125 0.015625,-0.21875 0.125,-0.609375 L 4.375,-6.484375 h 0.578125 c 0.75,0 1.078125,0.265625 1.078125,0.84375 0,0.140625 0,0.296875 -0.03125,0.46875 l 0.1875,0.03125 z m 0,0"
                 id="id-13434fb2-7378-42b4-afe1-491b9b9dd1d5" />
            </symbol>
          </g>
        </defs>
        <g
           id="id-fc77a6df-fca1-4309-b2a4-2de540c826f5"
           transform="translate(-155.026,-127.906)">
          <g
             style="fill:#000000;fill-opacity:1"
             id="id-5d7e1fdc-8705-4bc7-98b1-371425476602">
            <g
               transform="translate(154.401,134.765)"
               id="g6006">
              <path
                 style="stroke:none"
                 d="M 6.640625,-6.859375 H 1.0625 l -0.4375,1.625 0.1875,0.03125 c 0.515625,-1.078125 0.859375,-1.28125 2.28125,-1.28125 0.0625,0 0.140625,0 0.21875,0 L 1.796875,-0.9375 C 1.625,-0.390625 1.375,-0.21875 0.6875,-0.171875 V 0 h 3.046875 v -0.171875 l -0.40625,-0.03125 c -0.4375,-0.03125 -0.546875,-0.125 -0.546875,-0.453125 0,-0.125 0.015625,-0.21875 0.125,-0.609375 L 4.375,-6.484375 h 0.578125 c 0.75,0 1.078125,0.265625 1.078125,0.84375 0,0.140625 0,0.296875 -0.03125,0.46875 l 0.1875,0.03125 z m 0,0"
                 id="id-c60f5ba9-45ea-463c-83a3-7ca7376b4cca" />
            </g>
          </g>
        </g>
      </g>
      <path
         style="font-variation-settings:normal;vector-effect:none;fill:none;fill-opacity:1;stroke:#000000;stroke-width:0.25;stroke-linecap:round;stroke-linejoin:round;stroke-miterlimit:4;stroke-dasharray:none;stroke-dashoffset:0;stroke-opacity:1;stop-color:#000000"
         d="m 34.36656,84.687109 v 4.63721"
         id="path7108" />
    </g>
  </g>
</svg>
