<?xml version="1.0" encoding="UTF-8" standalone="no"?>
<svg
   xmlns:ns1="http://www.iki.fi/pav/software/textext/"
   xmlns:dc="http://purl.org/dc/elements/1.1/"
   xmlns:cc="http://creativecommons.org/ns#"
   xmlns:rdf="http://www.w3.org/1999/02/22-rdf-syntax-ns#"
   xmlns:svg="http://www.w3.org/2000/svg"
   xmlns="http://www.w3.org/2000/svg"
   xmlns:sodipodi="http://sodipodi.sourceforge.net/DTD/sodipodi-0.dtd"
   xmlns:inkscape="http://www.inkscape.org/namespaces/inkscape"
   sodipodi:docname="window-function.svg"
   inkscape:version="1.0.1 (1.0.1+r73)"
   id="svg8"
   version="1.1"
   viewBox="0 0 79.48051 55.274243"
   height="55.274242mm"
   width="79.480507mm">
  <defs
     id="defs2">
    <marker
       style="overflow:visible"
       id="marker1151"
       refX="0"
       refY="0"
       orient="auto"
       inkscape:stockid="Arrow2Lend"
       inkscape:isstock="true">
      <path
         transform="matrix(-1.1,0,0,-1.1,-1.1,0)"
         d="M 8.7185878,4.0337352 -2.2072895,0.01601326 8.7185884,-4.0017078 c -1.7454984,2.3720609 -1.7354408,5.6174519 -6e-7,8.035443 z"
         style="fill:#000000;fill-opacity:1;fill-rule:evenodd;stroke:#000000;stroke-width:0.625;stroke-linejoin:round;stroke-opacity:1"
         id="path1149" />
    </marker>
    <marker
       style="overflow:visible"
       id="Arrow2Lstart"
       refX="0"
       refY="0"
       orient="auto"
       inkscape:stockid="Arrow2Lstart"
       inkscape:isstock="true">
      <path
         transform="matrix(1.1,0,0,1.1,1.1,0)"
         d="M 8.7185878,4.0337352 -2.2072895,0.01601326 8.7185884,-4.0017078 c -1.7454984,2.3720609 -1.7354408,5.6174519 -6e-7,8.035443 z"
         style="fill:#000000;fill-opacity:1;fill-rule:evenodd;stroke:#000000;stroke-width:0.625;stroke-linejoin:round;stroke-opacity:1"
         id="path2046" />
    </marker>
    <marker
       style="overflow:visible"
       id="marker3639"
       refX="0"
       refY="0"
       orient="auto"
       inkscape:stockid="Arrow2Lend"
       inkscape:isstock="true">
      <path
         transform="matrix(-1.1,0,0,-1.1,-1.1,0)"
         d="M 8.7185878,4.0337352 -2.2072895,0.01601326 8.7185884,-4.0017078 c -1.7454984,2.3720609 -1.7354408,5.6174519 -6e-7,8.035443 z"
         style="fill:#000000;fill-opacity:1;fill-rule:evenodd;stroke:#000000;stroke-width:0.625;stroke-linejoin:round;stroke-opacity:1"
         id="path3637" />
    </marker>
    <marker
       style="overflow:visible"
       id="marker3022"
       refX="0"
       refY="0"
       orient="auto"
       inkscape:stockid="Arrow2Lend"
       inkscape:isstock="true">
      <path
         transform="matrix(-1.1,0,0,-1.1,-1.1,0)"
         d="M 8.7185878,4.0337352 -2.2072895,0.01601326 8.7185884,-4.0017078 c -1.7454984,2.3720609 -1.7354408,5.6174519 -6e-7,8.035443 z"
         style="fill:#000000;fill-opacity:1;fill-rule:evenodd;stroke:#000000;stroke-width:0.625;stroke-linejoin:round;stroke-opacity:1"
         id="path3020" />
    </marker>
    <marker
       style="overflow:visible"
       id="DotL"
       refX="0"
       refY="0"
       orient="auto"
       inkscape:stockid="DotL"
       inkscape:isstock="true">
      <path
         transform="matrix(0.8,0,0,0.8,5.92,0.8)"
         style="fill-rule:evenodd;stroke:#000000;stroke-width:1pt"
         d="m -2.5,-1 c 0,2.76 -2.24,5 -5,5 -2.76,0 -5,-2.24 -5,-5 0,-2.76 2.24,-5 5,-5 2.76,0 5,2.24 5,5 z"
         id="path2089" />
    </marker>
    <marker
       style="overflow:visible"
       id="Arrow1Lstart"
       refX="0"
       refY="0"
       orient="auto"
       inkscape:stockid="Arrow1Lstart"
       inkscape:isstock="true">
      <path
         transform="matrix(0.8,0,0,0.8,10,0)"
         style="fill-rule:evenodd;stroke:#000000;stroke-width:1pt"
         d="M 0,0 5,-5 -12.5,0 5,5 Z"
         id="path2028" />
    </marker>
    <pattern
       patternUnits="userSpaceOnUse"
       width="0.94488189"
       height="106.05568"
       patternTransform="translate(274.8043,212.58749)"
       id="pattern835">
      <path
         style="font-variation-settings:normal;opacity:1;vector-effect:none;fill:none;fill-opacity:1;stroke:#000000;stroke-width:0.944882;stroke-linecap:round;stroke-linejoin:round;stroke-miterlimit:4;stroke-dasharray:none;stroke-dashoffset:0;stroke-opacity:1;stop-color:#000000;stop-opacity:1"
         d="M 0.47244094,0.47244094 V 105.58324"
         id="path833" />
    </pattern>
    <marker
       style="overflow:visible"
       id="Arrow2Lend-3"
       refX="0"
       refY="0"
       orient="auto"
       inkscape:stockid="Arrow2Lend"
       inkscape:isstock="true"
       inkscape:collect="always">
      <path
         transform="matrix(-1.1,0,0,-1.1,-1.1,0)"
         d="M 8.7185878,4.0337352 -2.2072895,0.01601326 8.7185884,-4.0017078 c -1.7454984,2.3720609 -1.7354408,5.6174519 -6e-7,8.035443 z"
         style="fill:#000000;fill-opacity:1;fill-rule:evenodd;stroke:#000000;stroke-width:0.625;stroke-linejoin:round;stroke-opacity:1"
         id="path2049-6" />
    </marker>
    <marker
       style="overflow:visible"
       id="marker3022-7"
       refX="0"
       refY="0"
       orient="auto"
       inkscape:stockid="Arrow2Lend"
       inkscape:isstock="true">
      <path
         transform="matrix(-1.1,0,0,-1.1,-1.1,0)"
         d="M 8.7185878,4.0337352 -2.2072895,0.01601326 8.7185884,-4.0017078 c -1.7454984,2.3720609 -1.7354408,5.6174519 -6e-7,8.035443 z"
         style="fill:#000000;fill-opacity:1;fill-rule:evenodd;stroke:#000000;stroke-width:0.625;stroke-linejoin:round;stroke-opacity:1"
         id="path3020-5" />
    </marker>
    <g
       id="g1148">
      <symbol
         overflow="visible"
         id="symbol1142">
        <path
           style="stroke:none"
           d=""
           id="path1140" />
      </symbol>
      <symbol
         overflow="visible"
         id="symbol1146">
        <path
           style="stroke:none"
           d="m 6.65625,-2.515625 c 0,-1.046875 -0.671875,-1.796875 -0.765625,-1.875 H 5.5625 c 0.0625,0.109375 0.3125,0.59375 0.3125,1.296875 0,1.171875 -0.765625,2.796875 -1.75,2.796875 -0.359375,0 -0.625,-0.21875 -0.625,-0.578125 0,-0.984375 0.53125,-1.921875 0.53125,-2.15625 0,-0.046875 -0.015625,-0.0625 -0.046875,-0.0625 H 3.5 c -0.3125,0 -0.078125,2.796875 -1.609375,2.796875 -0.71875,0 -0.75,-0.703125 -0.75,-0.96875 0,-1.578125 1.15625,-2.921875 1.359375,-3.125 H 2.171875 c -0.015625,0 -1.9375,1.296875 -1.9375,3.09375 0,0.625 0.328125,1.40625 1.359375,1.40625 1.234375,0 1.59375,-1.015625 1.59375,-1.03125 0,0.015625 -0.015625,0.09375 -0.015625,0.21875 0,0.3125 0.125,0.8125 1,0.8125 1.265625,0 2.484375,-1.359375 2.484375,-2.625 z m 0,0"
           id="path1144" />
      </symbol>
    </g>
    <g
       id="g1192">
      <symbol
         overflow="visible"
         id="symbol1158">
        <path
           style="stroke:none"
           d=""
           id="path1156" />
      </symbol>
      <symbol
         overflow="visible"
         id="symbol1162">
        <path
           style="stroke:none"
           d="m 1.28125,1.921875 v -8.96875 h -0.5625 v 8.96875 z m 0,0"
           id="path1160" />
      </symbol>
      <symbol
         overflow="visible"
         id="symbol1166">
        <path
           style="stroke:none"
           d="M 2.9375,-7.140625 C 1.5,-6.203125 0.484375,-4.59375 0.484375,-2.5625 c 0,1.859375 1.046875,3.734375 2.421875,4.578125 l 0.125,-0.15625 C 1.71875,0.8125 1.328125,-0.390625 1.328125,-2.59375 1.328125,-4.8125 1.75,-5.953125 3.03125,-6.984375 Z m 0,0"
           id="path1164" />
      </symbol>
      <symbol
         overflow="visible"
         id="symbol1170">
        <path
           style="stroke:none"
           d="m 0.375,-7.140625 -0.078125,0.15625 c 1.28125,1.03125 1.6875,2.171875 1.6875,4.390625 0,2.203125 -0.375,3.40625 -1.6875,4.453125 l 0.109375,0.15625 c 1.375,-0.84375 2.4375,-2.71875 2.4375,-4.578125 0,-2.03125 -1.015625,-3.640625 -2.46875,-4.578125 z m 0,0"
           id="path1168" />
      </symbol>
      <symbol
         overflow="visible"
         id="symbol1174">
        <path
           style="stroke:none"
           d=""
           id="path1172" />
      </symbol>
      <symbol
         overflow="visible"
         id="symbol1178">
        <path
           style="stroke:none"
           d="m 4.609375,-5.984375 c 0,-0.3125 -0.46875,-0.5625 -1.28125,-0.5625 -0.796875,0 -1.4375,0.453125 -1.4375,1.046875 0,0.671875 0.6875,1.390625 0.6875,1.390625 -0.015625,0 -2.40625,0.390625 -2.40625,2.65625 0,0.671875 0.359375,1.609375 1.359375,1.609375 1.421875,0 2.546875,-1.296875 2.546875,-2.921875 0,-1.65625 -1.8125,-1.875 -1.8125,-2.84375 0,-0.4375 0.53125,-0.625 0.84375,-0.625 0.9375,0 0.734375,0.5625 1.140625,0.5625 0.21875,0 0.359375,-0.140625 0.359375,-0.3125 z M 3.28125,-2.4375 c 0,1.28125 -0.828125,2.328125 -1.5,2.328125 -0.5625,0 -0.765625,-0.765625 -0.765625,-1.3125 0,-2.3125 1.734375,-2.46875 1.75,-2.46875 0,0 0.515625,0.640625 0.515625,1.453125 z m 0,0"
           id="path1176" />
      </symbol>
      <symbol
         overflow="visible"
         id="symbol1182">
        <path
           style="stroke:none"
           d="m 6.65625,-2.515625 c 0,-1.046875 -0.671875,-1.796875 -0.765625,-1.875 H 5.5625 c 0.0625,0.109375 0.3125,0.59375 0.3125,1.296875 0,1.171875 -0.765625,2.796875 -1.75,2.796875 -0.359375,0 -0.625,-0.21875 -0.625,-0.578125 0,-0.984375 0.53125,-1.921875 0.53125,-2.15625 0,-0.046875 -0.015625,-0.0625 -0.046875,-0.0625 H 3.5 c -0.3125,0 -0.078125,2.796875 -1.609375,2.796875 -0.71875,0 -0.75,-0.703125 -0.75,-0.96875 0,-1.578125 1.15625,-2.921875 1.359375,-3.125 H 2.171875 c -0.015625,0 -1.9375,1.296875 -1.9375,3.09375 0,0.625 0.328125,1.40625 1.359375,1.40625 1.234375,0 1.59375,-1.015625 1.59375,-1.03125 0,0.015625 -0.015625,0.09375 -0.015625,0.21875 0,0.3125 0.125,0.8125 1,0.8125 1.265625,0 2.484375,-1.359375 2.484375,-2.625 z m 0,0"
           id="path1180" />
      </symbol>
      <symbol
         overflow="visible"
         id="symbol1186">
        <path
           style="stroke:none"
           d=""
           id="path1184" />
      </symbol>
      <symbol
         overflow="visible"
         id="symbol1190">
        <path
           style="stroke:none"
           d="m 2.09375,0.5 v -4.90625 l -1.515625,0.109375 v 0.3125 c 0.765625,0 0.859375,0.0625 0.859375,0.5625 v 3.9375 c 0,0.453125 -0.09375,1.3125 -0.734375,1.3125 -0.046875,0 -0.28125,0 -0.53125,-0.140625 C 0.3125,1.65625 0.515625,1.515625 0.515625,1.25 0.515625,0.984375 0.34375,0.78125 0.0625,0.78125 c -0.28125,0 -0.46875,0.203125 -0.46875,0.46875 0,0.515625 0.5625,0.796875 1.140625,0.796875 C 1.46875,2.046875 2.09375,1.40625 2.09375,0.5 Z m 0,-6.515625 c 0,-0.28125 -0.234375,-0.53125 -0.53125,-0.53125 -0.34375,0 -0.53125,0.28125 -0.53125,0.53125 C 1.03125,-5.75 1.25,-5.5 1.5625,-5.5 c 0.328125,0 0.53125,-0.265625 0.53125,-0.515625 z m 0,0"
           id="path1188" />
      </symbol>
    </g>
    <g
       id="g1259">
      <symbol
         overflow="visible"
         id="symbol1225">
        <path
           style="stroke:none"
           d=""
           id="path1223" />
      </symbol>
      <symbol
         overflow="visible"
         id="symbol1229">
        <path
           style="stroke:none"
           d="m 1.28125,1.921875 v -8.96875 h -0.5625 v 8.96875 z m 0,0"
           id="path1227" />
      </symbol>
      <symbol
         overflow="visible"
         id="symbol1233">
        <path
           style="stroke:none"
           d="M 2.9375,-7.140625 C 1.5,-6.203125 0.484375,-4.59375 0.484375,-2.5625 c 0,1.859375 1.046875,3.734375 2.421875,4.578125 l 0.125,-0.15625 C 1.71875,0.8125 1.328125,-0.390625 1.328125,-2.59375 1.328125,-4.8125 1.75,-5.953125 3.03125,-6.984375 Z m 0,0"
           id="path1231" />
      </symbol>
      <symbol
         overflow="visible"
         id="symbol1237">
        <path
           style="stroke:none"
           d="m 0.375,-7.140625 -0.078125,0.15625 c 1.28125,1.03125 1.6875,2.171875 1.6875,4.390625 0,2.203125 -0.375,3.40625 -1.6875,4.453125 l 0.109375,0.15625 c 1.375,-0.84375 2.4375,-2.71875 2.4375,-4.578125 0,-2.03125 -1.015625,-3.640625 -2.46875,-4.578125 z m 0,0"
           id="path1235" />
      </symbol>
      <symbol
         overflow="visible"
         id="symbol1241">
        <path
           style="stroke:none"
           d=""
           id="path1239" />
      </symbol>
      <symbol
         overflow="visible"
         id="symbol1245">
        <path
           style="stroke:none"
           d="M 9.03125,-6.34375 V -6.515625 H 7.1875 v 0.171875 c 0.546875,0.046875 0.640625,0.109375 0.640625,0.390625 0,0.171875 -0.0625,0.40625 -0.203125,0.671875 L 5.765625,-1.609375 5.359375,-5.625 v -0.140625 c 0,-0.40625 0.140625,-0.53125 0.671875,-0.578125 v -0.171875 h -2.375 v 0.171875 c 0.578125,0.015625 0.6875,0.078125 0.75,0.578125 L 4.5,-5.078125 2.78125,-1.609375 2.34375,-5.65625 2.328125,-5.796875 c 0,-0.390625 0.125,-0.484375 0.734375,-0.546875 V -6.515625 H 0.703125 v 0.171875 c 0.328125,0.03125 0.40625,0.0625 0.515625,0.140625 0.109375,0.125 0.15625,0.296875 0.28125,1.234375 l 0.609375,5.140625 h 0.1875 L 4.515625,-4.34375 H 4.5625 l 0.5,4.515625 H 5.265625 L 8.28125,-5.625 c 0.265625,-0.515625 0.375,-0.609375 0.75,-0.71875 z m 0,0"
           id="path1243" />
      </symbol>
      <symbol
         overflow="visible"
         id="symbol1249">
        <path
           style="stroke:none"
           d="m 6.65625,-2.515625 c 0,-1.046875 -0.671875,-1.796875 -0.765625,-1.875 H 5.5625 c 0.0625,0.109375 0.3125,0.59375 0.3125,1.296875 0,1.171875 -0.765625,2.796875 -1.75,2.796875 -0.359375,0 -0.625,-0.21875 -0.625,-0.578125 0,-0.984375 0.53125,-1.921875 0.53125,-2.15625 0,-0.046875 -0.015625,-0.0625 -0.046875,-0.0625 H 3.5 c -0.3125,0 -0.078125,2.796875 -1.609375,2.796875 -0.71875,0 -0.75,-0.703125 -0.75,-0.96875 0,-1.578125 1.15625,-2.921875 1.359375,-3.125 H 2.171875 c -0.015625,0 -1.9375,1.296875 -1.9375,3.09375 0,0.625 0.328125,1.40625 1.359375,1.40625 1.234375,0 1.59375,-1.015625 1.59375,-1.03125 0,0.015625 -0.015625,0.09375 -0.015625,0.21875 0,0.3125 0.125,0.8125 1,0.8125 1.265625,0 2.484375,-1.359375 2.484375,-2.625 z m 0,0"
           id="path1247" />
      </symbol>
      <symbol
         overflow="visible"
         id="symbol1253">
        <path
           style="stroke:none"
           d=""
           id="path1251" />
      </symbol>
      <symbol
         overflow="visible"
         id="symbol1257">
        <path
           style="stroke:none"
           d="m 2.09375,0.5 v -4.90625 l -1.515625,0.109375 v 0.3125 c 0.765625,0 0.859375,0.0625 0.859375,0.5625 v 3.9375 c 0,0.453125 -0.09375,1.3125 -0.734375,1.3125 -0.046875,0 -0.28125,0 -0.53125,-0.140625 C 0.3125,1.65625 0.515625,1.515625 0.515625,1.25 0.515625,0.984375 0.34375,0.78125 0.0625,0.78125 c -0.28125,0 -0.46875,0.203125 -0.46875,0.46875 0,0.515625 0.5625,0.796875 1.140625,0.796875 C 1.46875,2.046875 2.09375,1.40625 2.09375,0.5 Z m 0,-6.515625 c 0,-0.28125 -0.234375,-0.53125 -0.53125,-0.53125 -0.34375,0 -0.53125,0.28125 -0.53125,0.53125 C 1.03125,-5.75 1.25,-5.5 1.5625,-5.5 c 0.328125,0 0.53125,-0.265625 0.53125,-0.515625 z m 0,0"
           id="path1255" />
      </symbol>
    </g>
  </defs>
  <sodipodi:namedview
     id="base"
     pagecolor="#ffffff"
     bordercolor="#666666"
     borderopacity="1.0"
     inkscape:pageopacity="0.0"
     inkscape:pageshadow="2"
     inkscape:zoom="1.979899"
     inkscape:cx="183.11335"
     inkscape:cy="149.67045"
     inkscape:document-units="mm"
     inkscape:current-layer="layer1"
     inkscape:document-rotation="0"
     showgrid="false"
     inkscape:window-width="2160"
     inkscape:window-height="1360"
     inkscape:window-x="0"
     inkscape:window-y="44"
     inkscape:window-maximized="1"
     inkscape:snap-intersection-paths="true"
     inkscape:snap-bbox="true"
     inkscape:snap-center="true"
     fit-margin-top="0"
     fit-margin-left="0"
     fit-margin-right="0"
     fit-margin-bottom="0"
     inkscape:object-paths="false"
     inkscape:snap-smooth-nodes="true" />
  <metadata
     id="metadata5">
    <rdf:RDF>
      <cc:Work
         rdf:about="">
        <dc:format>image/svg+xml</dc:format>
        <dc:type
           rdf:resource="http://purl.org/dc/dcmitype/StillImage" />
        <dc:title></dc:title>
      </cc:Work>
    </rdf:RDF>
  </metadata>
  <g
     inkscape:label="Layer 1"
     inkscape:groupmode="layer"
     id="layer1"
     transform="translate(-183.79203,-116.67065)">
    <g
       id="g1688"
       transform="translate(-87.41287,-30.082465)">
      <path
         style="font-variation-settings:normal;opacity:1;vector-effect:none;fill:#000000;fill-opacity:1;stroke:#000000;stroke-width:0.249999;stroke-linecap:round;stroke-linejoin:round;stroke-miterlimit:4;stroke-dasharray:none;stroke-dashoffset:0;stroke-opacity:1;marker-end:url(#Arrow2Lend-3);stop-color:#000000;stop-opacity:1"
         d="M 310.79869,200.829 V 147.17104"
         id="path2536-3"
         inkscape:tile-cx="58.099355"
         inkscape:tile-cy="77.321884"
         inkscape:tile-w="0.25000001"
         inkscape:tile-h="29.156812"
         inkscape:tile-x0="57.974355"
         inkscape:tile-y0="62.743478" />
      <path
         style="font-variation-settings:normal;opacity:1;vector-effect:none;fill:none;fill-opacity:1;stroke:#000000;stroke-width:0.25;stroke-linecap:round;stroke-linejoin:round;stroke-miterlimit:4;stroke-dasharray:none;stroke-dashoffset:0;stroke-opacity:1;marker-end:url(#marker3022-7);stop-color:#000000;stop-opacity:1"
         d="m 271.3299,200.84096 h 78.93758"
         id="path2882-5" />
      <g
         transform="matrix(0.52916701,0,0,0.52916701,343.22516,196.43024)"
         ns1:version="1.1.0"
         ns1:texconverter="xelatex"
         ns1:pdfconverter="inkscape"
         ns1:text="$\\omega$"
         ns1:preamble="/home/xiaocy/.config/inkscape/extensions/textext/default_packages.tex"
         ns1:scale="1.5"
         ns1:alignment="middle center"
         ns1:inkscapeversion="1.0.1"
         ns1:jacobian_sqrt="0.529167"
         id="g1039">
        <defs
           id="id-7f7959d1-2fc8-40a4-8a27-5735e3f6e4f2">
          <g
             id="g1338">
            <symbol
               overflow="visible"
               id="symbol1332">
              <path
                 style="stroke:none"
                 d=""
                 id="path1330" />
            </symbol>
            <symbol
               overflow="visible"
               id="symbol1336">
              <path
                 style="stroke:none"
                 d="m 6.65625,-2.515625 c 0,-1.046875 -0.671875,-1.796875 -0.765625,-1.875 H 5.5625 c 0.0625,0.109375 0.3125,0.59375 0.3125,1.296875 0,1.171875 -0.765625,2.796875 -1.75,2.796875 -0.359375,0 -0.625,-0.21875 -0.625,-0.578125 0,-0.984375 0.53125,-1.921875 0.53125,-2.15625 0,-0.046875 -0.015625,-0.0625 -0.046875,-0.0625 H 3.5 c -0.3125,0 -0.078125,2.796875 -1.609375,2.796875 -0.71875,0 -0.75,-0.703125 -0.75,-0.96875 0,-1.578125 1.15625,-2.921875 1.359375,-3.125 H 2.171875 c -0.015625,0 -1.9375,1.296875 -1.9375,3.09375 0,0.625 0.328125,1.40625 1.359375,1.40625 1.234375,0 1.59375,-1.015625 1.59375,-1.03125 0,0.015625 -0.015625,0.09375 -0.015625,0.21875 0,0.3125 0.125,0.8125 1,0.8125 1.265625,0 2.484375,-1.359375 2.484375,-2.625 z m 0,0"
                 id="path1334" />
            </symbol>
          </g>
        </defs>
        <g
           id="id-9eb36b1c-bce3-421b-9162-7b00af6403dc"
           transform="translate(-148.946,-130.374)">
          <g
             style="fill:#000000;fill-opacity:1"
             id="id-610738b6-3d54-421b-ba38-a77207b84c17">
            <g
               transform="translate(148.712,134.765)"
               id="g1035">
              <path
                 style="stroke:none"
                 d="m 6.65625,-2.515625 c 0,-1.046875 -0.671875,-1.796875 -0.765625,-1.875 H 5.5625 c 0.0625,0.109375 0.3125,0.59375 0.3125,1.296875 0,1.171875 -0.765625,2.796875 -1.75,2.796875 -0.359375,0 -0.625,-0.21875 -0.625,-0.578125 0,-0.984375 0.53125,-1.921875 0.53125,-2.15625 0,-0.046875 -0.015625,-0.0625 -0.046875,-0.0625 H 3.5 c -0.3125,0 -0.078125,2.796875 -1.609375,2.796875 -0.71875,0 -0.75,-0.703125 -0.75,-0.96875 0,-1.578125 1.15625,-2.921875 1.359375,-3.125 H 2.171875 c -0.015625,0 -1.9375,1.296875 -1.9375,3.09375 0,0.625 0.328125,1.40625 1.359375,1.40625 1.234375,0 1.59375,-1.015625 1.59375,-1.03125 0,0.015625 -0.015625,0.09375 -0.015625,0.21875 0,0.3125 0.125,0.8125 1,0.8125 1.265625,0 2.484375,-1.359375 2.484375,-2.625 z m 0,0"
                 id="id-b6e982b0-112e-44e5-9404-071d2870fffe" />
            </g>
          </g>
        </g>
      </g>
      <g
         transform="matrix(0.52916701,0,0,0.52916701,317.28857,149.21816)"
         ns1:version="1.1.0"
         ns1:texconverter="xelatex"
         ns1:pdfconverter="inkscape"
         ns1:text="$\\left| \\delta (\\mathrm{j}\\omega) \\right|$"
         ns1:preamble="/home/xiaocy/.config/inkscape/extensions/textext/default_packages.tex"
         ns1:scale="1.5"
         ns1:alignment="middle center"
         ns1:inkscapeversion="1.0.1"
         ns1:jacobian_sqrt="0.529167"
         id="g1439">
        <defs
           id="id-dfa423d6-e26a-40b0-9a0f-4d3745087808">
          <g
             id="g1382">
            <symbol
               overflow="visible"
               id="symbol1348">
              <path
                 style="stroke:none"
                 d=""
                 id="path1346" />
            </symbol>
            <symbol
               overflow="visible"
               id="symbol1352">
              <path
                 style="stroke:none"
                 d="m 1.28125,1.921875 v -8.96875 h -0.5625 v 8.96875 z m 0,0"
                 id="path1350" />
            </symbol>
            <symbol
               overflow="visible"
               id="symbol1356">
              <path
                 style="stroke:none"
                 d="M 2.9375,-7.140625 C 1.5,-6.203125 0.484375,-4.59375 0.484375,-2.5625 c 0,1.859375 1.046875,3.734375 2.421875,4.578125 l 0.125,-0.15625 C 1.71875,0.8125 1.328125,-0.390625 1.328125,-2.59375 1.328125,-4.8125 1.75,-5.953125 3.03125,-6.984375 Z m 0,0"
                 id="path1354" />
            </symbol>
            <symbol
               overflow="visible"
               id="symbol1360">
              <path
                 style="stroke:none"
                 d="m 0.375,-7.140625 -0.078125,0.15625 c 1.28125,1.03125 1.6875,2.171875 1.6875,4.390625 0,2.203125 -0.375,3.40625 -1.6875,4.453125 l 0.109375,0.15625 c 1.375,-0.84375 2.4375,-2.71875 2.4375,-4.578125 0,-2.03125 -1.015625,-3.640625 -2.46875,-4.578125 z m 0,0"
                 id="path1358" />
            </symbol>
            <symbol
               overflow="visible"
               id="symbol1364">
              <path
                 style="stroke:none"
                 d=""
                 id="path1362" />
            </symbol>
            <symbol
               overflow="visible"
               id="symbol1368">
              <path
                 style="stroke:none"
                 d="m 4.609375,-5.984375 c 0,-0.3125 -0.46875,-0.5625 -1.28125,-0.5625 -0.796875,0 -1.4375,0.453125 -1.4375,1.046875 0,0.671875 0.6875,1.390625 0.6875,1.390625 -0.015625,0 -2.40625,0.390625 -2.40625,2.65625 0,0.671875 0.359375,1.609375 1.359375,1.609375 1.421875,0 2.546875,-1.296875 2.546875,-2.921875 0,-1.65625 -1.8125,-1.875 -1.8125,-2.84375 0,-0.4375 0.53125,-0.625 0.84375,-0.625 0.9375,0 0.734375,0.5625 1.140625,0.5625 0.21875,0 0.359375,-0.140625 0.359375,-0.3125 z M 3.28125,-2.4375 c 0,1.28125 -0.828125,2.328125 -1.5,2.328125 -0.5625,0 -0.765625,-0.765625 -0.765625,-1.3125 0,-2.3125 1.734375,-2.46875 1.75,-2.46875 0,0 0.515625,0.640625 0.515625,1.453125 z m 0,0"
                 id="path1366" />
            </symbol>
            <symbol
               overflow="visible"
               id="symbol1372">
              <path
                 style="stroke:none"
                 d="m 6.65625,-2.515625 c 0,-1.046875 -0.671875,-1.796875 -0.765625,-1.875 H 5.5625 c 0.0625,0.109375 0.3125,0.59375 0.3125,1.296875 0,1.171875 -0.765625,2.796875 -1.75,2.796875 -0.359375,0 -0.625,-0.21875 -0.625,-0.578125 0,-0.984375 0.53125,-1.921875 0.53125,-2.15625 0,-0.046875 -0.015625,-0.0625 -0.046875,-0.0625 H 3.5 c -0.3125,0 -0.078125,2.796875 -1.609375,2.796875 -0.71875,0 -0.75,-0.703125 -0.75,-0.96875 0,-1.578125 1.15625,-2.921875 1.359375,-3.125 H 2.171875 c -0.015625,0 -1.9375,1.296875 -1.9375,3.09375 0,0.625 0.328125,1.40625 1.359375,1.40625 1.234375,0 1.59375,-1.015625 1.59375,-1.03125 0,0.015625 -0.015625,0.09375 -0.015625,0.21875 0,0.3125 0.125,0.8125 1,0.8125 1.265625,0 2.484375,-1.359375 2.484375,-2.625 z m 0,0"
                 id="path1370" />
            </symbol>
            <symbol
               overflow="visible"
               id="symbol1376">
              <path
                 style="stroke:none"
                 d=""
                 id="path1374" />
            </symbol>
            <symbol
               overflow="visible"
               id="symbol1380">
              <path
                 style="stroke:none"
                 d="m 2.09375,0.5 v -4.90625 l -1.515625,0.109375 v 0.3125 c 0.765625,0 0.859375,0.0625 0.859375,0.5625 v 3.9375 c 0,0.453125 -0.09375,1.3125 -0.734375,1.3125 -0.046875,0 -0.28125,0 -0.53125,-0.140625 C 0.3125,1.65625 0.515625,1.515625 0.515625,1.25 0.515625,0.984375 0.34375,0.78125 0.0625,0.78125 c -0.28125,0 -0.46875,0.203125 -0.46875,0.46875 0,0.515625 0.5625,0.796875 1.140625,0.796875 C 1.46875,2.046875 2.09375,1.40625 2.09375,0.5 Z m 0,-6.515625 c 0,-0.28125 -0.234375,-0.53125 -0.53125,-0.53125 -0.34375,0 -0.53125,0.28125 -0.53125,0.53125 C 1.03125,-5.75 1.25,-5.5 1.5625,-5.5 c 0.328125,0 0.53125,-0.265625 0.53125,-0.515625 z m 0,0"
                 id="path1378" />
            </symbol>
          </g>
        </defs>
        <g
           id="id-27405f78-067e-493c-a74c-98ab6b7c1b83"
           transform="translate(-149.83,-127.624)">
          <g
             style="fill:#000000;fill-opacity:1"
             id="id-9e2d4f59-f609-4895-933c-dfdab6c55c32">
            <g
               transform="translate(149.111,134.75)"
               id="g1411">
              <path
                 style="stroke:none"
                 d="m 1.28125,1.921875 v -8.96875 h -0.5625 v 8.96875 z m 0,0"
                 id="id-c28a2d11-a7a3-4d50-a29b-b68f0f660d27" />
            </g>
          </g>
          <g
             style="fill:#000000;fill-opacity:1"
             id="id-e0b0dfa6-ecdd-4f46-8a34-41948bda44fb">
            <g
               transform="translate(151.641,134.765)"
               id="g1415">
              <path
                 style="stroke:none"
                 d="m 4.609375,-5.984375 c 0,-0.3125 -0.46875,-0.5625 -1.28125,-0.5625 -0.796875,0 -1.4375,0.453125 -1.4375,1.046875 0,0.671875 0.6875,1.390625 0.6875,1.390625 -0.015625,0 -2.40625,0.390625 -2.40625,2.65625 0,0.671875 0.359375,1.609375 1.359375,1.609375 1.421875,0 2.546875,-1.296875 2.546875,-2.921875 0,-1.65625 -1.8125,-1.875 -1.8125,-2.84375 0,-0.4375 0.53125,-0.625 0.84375,-0.625 0.9375,0 0.734375,0.5625 1.140625,0.5625 0.21875,0 0.359375,-0.140625 0.359375,-0.3125 z M 3.28125,-2.4375 c 0,1.28125 -0.828125,2.328125 -1.5,2.328125 -0.5625,0 -0.765625,-0.765625 -0.765625,-1.3125 0,-2.3125 1.734375,-2.46875 1.75,-2.46875 0,0 0.515625,0.640625 0.515625,1.453125 z m 0,0"
                 id="id-0d82e968-5733-4b1d-a6c8-09e1aa24e3a1" />
            </g>
          </g>
          <g
             style="fill:#000000;fill-opacity:1"
             id="id-5ded9f04-9a5f-4b85-9c3b-03ff61c8aad1">
            <g
               transform="translate(157.051,134.765)"
               id="g1419">
              <path
                 style="stroke:none"
                 d="M 2.9375,-7.140625 C 1.5,-6.203125 0.484375,-4.59375 0.484375,-2.5625 c 0,1.859375 1.046875,3.734375 2.421875,4.578125 l 0.125,-0.15625 C 1.71875,0.8125 1.328125,-0.390625 1.328125,-2.59375 1.328125,-4.8125 1.75,-5.953125 3.03125,-6.984375 Z m 0,0"
                 id="id-07fee951-a4be-4b35-9fe0-dce6abc791e4" />
            </g>
          </g>
          <g
             style="fill:#000000;fill-opacity:1"
             id="id-816a2c91-c77d-4b36-b3b4-437215b75c76">
            <g
               transform="translate(160.767,134.765)"
               id="g1423">
              <path
                 style="stroke:none"
                 d="m 2.09375,0.5 v -4.90625 l -1.515625,0.109375 v 0.3125 c 0.765625,0 0.859375,0.0625 0.859375,0.5625 v 3.9375 c 0,0.453125 -0.09375,1.3125 -0.734375,1.3125 -0.046875,0 -0.28125,0 -0.53125,-0.140625 C 0.3125,1.65625 0.515625,1.515625 0.515625,1.25 0.515625,0.984375 0.34375,0.78125 0.0625,0.78125 c -0.28125,0 -0.46875,0.203125 -0.46875,0.46875 0,0.515625 0.5625,0.796875 1.140625,0.796875 C 1.46875,2.046875 2.09375,1.40625 2.09375,0.5 Z m 0,-6.515625 c 0,-0.28125 -0.234375,-0.53125 -0.53125,-0.53125 -0.34375,0 -0.53125,0.28125 -0.53125,0.53125 C 1.03125,-5.75 1.25,-5.5 1.5625,-5.5 c 0.328125,0 0.53125,-0.265625 0.53125,-0.515625 z m 0,0"
                 id="id-f72525da-2157-4ddd-9f95-2775a5a72092" />
            </g>
          </g>
          <g
             style="fill:#000000;fill-opacity:1"
             id="id-aba7cd64-1491-4728-b8cb-6436f64028d0">
            <g
               transform="translate(163.811,134.765)"
               id="g1427">
              <path
                 style="stroke:none"
                 d="m 6.65625,-2.515625 c 0,-1.046875 -0.671875,-1.796875 -0.765625,-1.875 H 5.5625 c 0.0625,0.109375 0.3125,0.59375 0.3125,1.296875 0,1.171875 -0.765625,2.796875 -1.75,2.796875 -0.359375,0 -0.625,-0.21875 -0.625,-0.578125 0,-0.984375 0.53125,-1.921875 0.53125,-2.15625 0,-0.046875 -0.015625,-0.0625 -0.046875,-0.0625 H 3.5 c -0.3125,0 -0.078125,2.796875 -1.609375,2.796875 -0.71875,0 -0.75,-0.703125 -0.75,-0.96875 0,-1.578125 1.15625,-2.921875 1.359375,-3.125 H 2.171875 c -0.015625,0 -1.9375,1.296875 -1.9375,3.09375 0,0.625 0.328125,1.40625 1.359375,1.40625 1.234375,0 1.59375,-1.015625 1.59375,-1.03125 0,0.015625 -0.015625,0.09375 -0.015625,0.21875 0,0.3125 0.125,0.8125 1,0.8125 1.265625,0 2.484375,-1.359375 2.484375,-2.625 z m 0,0"
                 id="id-16b44b2e-577a-4a49-9ab9-fe7197727fb9" />
            </g>
          </g>
          <g
             style="fill:#000000;fill-opacity:1"
             id="id-d3d34c32-6e98-4416-9231-043f3385b88a">
            <g
               transform="translate(170.895,134.765)"
               id="g1431">
              <path
                 style="stroke:none"
                 d="m 0.375,-7.140625 -0.078125,0.15625 c 1.28125,1.03125 1.6875,2.171875 1.6875,4.390625 0,2.203125 -0.375,3.40625 -1.6875,4.453125 l 0.109375,0.15625 c 1.375,-0.84375 2.4375,-2.71875 2.4375,-4.578125 0,-2.03125 -1.015625,-3.640625 -2.46875,-4.578125 z m 0,0"
                 id="id-de5dcf53-8c63-4f62-baad-a864adb8361d" />
            </g>
          </g>
          <g
             style="fill:#000000;fill-opacity:1"
             id="id-a66d297c-1050-4640-8750-59b3824c092e">
            <g
               transform="translate(175.109,134.75)"
               id="g1435">
              <path
                 style="stroke:none"
                 d="m 1.28125,1.921875 v -8.96875 h -0.5625 v 8.96875 z m 0,0"
                 id="id-d642f89e-3150-4f89-9839-2793c0b11e24" />
            </g>
          </g>
        </g>
      </g>
      <path
         id="path1486"
         style="font-variation-settings:normal;vector-effect:none;fill:none;fill-opacity:1;fill-rule:evenodd;stroke:#000000;stroke-width:0.250001;stroke-linecap:round;stroke-linejoin:round;stroke-miterlimit:4;stroke-dasharray:none;stroke-dashoffset:0;stroke-opacity:1;stop-color:#000000"
         d="m 316.36963,200.72024 a 5.6270157,43.458538 0 0 0 -2.81351,-37.63619 5.6270157,43.458538 0 0 0 -5.62701,0 5.6270157,43.458538 0 0 0 -2.81351,37.63619" />
      <path
         id="path1493"
         style="font-variation-settings:normal;vector-effect:none;fill:none;fill-opacity:1;fill-rule:evenodd;stroke:#000000;stroke-width:0.250001;stroke-linecap:round;stroke-linejoin:round;stroke-miterlimit:4;stroke-dasharray:none;stroke-dashoffset:0;stroke-opacity:1;stop-color:#000000"
         d="m 327.62366,200.72024 a 5.6270157,14.00377 0 0 0 -2.81351,-12.12762 5.6270157,14.00377 0 0 0 -5.62701,0 5.6270157,14.00377 0 0 0 -2.81351,12.12762" />
      <path
         id="path1495"
         style="font-variation-settings:normal;vector-effect:none;fill:none;fill-opacity:1;fill-rule:evenodd;stroke:#000000;stroke-width:0.250001;stroke-linecap:round;stroke-linejoin:round;stroke-miterlimit:4;stroke-dasharray:none;stroke-dashoffset:0;stroke-opacity:1;stop-color:#000000"
         d="m 305.1156,200.72024 a 5.6270157,14.00377 0 0 0 -2.81351,-12.12762 5.6270157,14.00377 0 0 0 -5.62701,0 5.6270157,14.00377 0 0 0 -2.81351,12.12762" />
      <path
         id="path960"
         style="font-variation-settings:normal;vector-effect:none;fill:none;fill-opacity:1;fill-rule:evenodd;stroke:#000000;stroke-width:0.250001;stroke-linecap:round;stroke-linejoin:round;stroke-miterlimit:4;stroke-dasharray:none;stroke-dashoffset:0;stroke-opacity:1;stop-color:#000000"
         d="m 338.87769,200.72024 a 5.6270157,3.57142 0 0 0 -2.81351,-3.09294 5.6270157,3.57142 0 0 0 -5.62701,0 5.6270157,3.57142 0 0 0 -2.81351,3.09294" />
      <path
         id="path961"
         style="font-variation-settings:normal;vector-effect:none;fill:none;fill-opacity:1;fill-rule:evenodd;stroke:#000000;stroke-width:0.250001;stroke-linecap:round;stroke-linejoin:round;stroke-miterlimit:4;stroke-dasharray:none;stroke-dashoffset:0;stroke-opacity:1;stop-color:#000000"
         d="m 293.86157,200.72024 a 5.6270157,3.57142 0 0 0 -2.81351,-3.09294 5.6270157,3.57142 0 0 0 -5.62701,0 5.6270157,3.57142 0 0 0 -2.81351,3.09294" />
      <g
         transform="matrix(0.52916701,0,0,0.52916701,316.2633,160.00418)"
         ns1:version="1.1.0"
         ns1:texconverter="xelatex"
         ns1:pdfconverter="inkscape"
         ns1:text="$\\left| W (\\mathrm{j}\\omega) \\right|$"
         ns1:preamble="/home/xiaocy/.config/inkscape/extensions/textext/default_packages.tex"
         ns1:scale="1.5"
         ns1:alignment="middle center"
         ns1:inkscapeversion="1.0.1"
         ns1:jacobian_sqrt="0.529167"
         id="g1220">
        <defs
           id="id-b82250ff-6e47-469d-99a6-c64c8f31a666">
          <g
             id="g1449">
            <symbol
               overflow="visible"
               id="symbol1415">
              <path
                 style="stroke:none"
                 d=""
                 id="path1413" />
            </symbol>
            <symbol
               overflow="visible"
               id="symbol1419">
              <path
                 style="stroke:none"
                 d="m 1.28125,1.921875 v -8.96875 h -0.5625 v 8.96875 z m 0,0"
                 id="path1417" />
            </symbol>
            <symbol
               overflow="visible"
               id="symbol1423">
              <path
                 style="stroke:none"
                 d="M 2.9375,-7.140625 C 1.5,-6.203125 0.484375,-4.59375 0.484375,-2.5625 c 0,1.859375 1.046875,3.734375 2.421875,4.578125 l 0.125,-0.15625 C 1.71875,0.8125 1.328125,-0.390625 1.328125,-2.59375 1.328125,-4.8125 1.75,-5.953125 3.03125,-6.984375 Z m 0,0"
                 id="path1421" />
            </symbol>
            <symbol
               overflow="visible"
               id="symbol1427">
              <path
                 style="stroke:none"
                 d="m 0.375,-7.140625 -0.078125,0.15625 c 1.28125,1.03125 1.6875,2.171875 1.6875,4.390625 0,2.203125 -0.375,3.40625 -1.6875,4.453125 l 0.109375,0.15625 c 1.375,-0.84375 2.4375,-2.71875 2.4375,-4.578125 0,-2.03125 -1.015625,-3.640625 -2.46875,-4.578125 z m 0,0"
                 id="path1425" />
            </symbol>
            <symbol
               overflow="visible"
               id="symbol1431">
              <path
                 style="stroke:none"
                 d=""
                 id="path1429" />
            </symbol>
            <symbol
               overflow="visible"
               id="symbol1435">
              <path
                 style="stroke:none"
                 d="M 9.03125,-6.34375 V -6.515625 H 7.1875 v 0.171875 c 0.546875,0.046875 0.640625,0.109375 0.640625,0.390625 0,0.171875 -0.0625,0.40625 -0.203125,0.671875 L 5.765625,-1.609375 5.359375,-5.625 v -0.140625 c 0,-0.40625 0.140625,-0.53125 0.671875,-0.578125 v -0.171875 h -2.375 v 0.171875 c 0.578125,0.015625 0.6875,0.078125 0.75,0.578125 L 4.5,-5.078125 2.78125,-1.609375 2.34375,-5.65625 2.328125,-5.796875 c 0,-0.390625 0.125,-0.484375 0.734375,-0.546875 V -6.515625 H 0.703125 v 0.171875 c 0.328125,0.03125 0.40625,0.0625 0.515625,0.140625 0.109375,0.125 0.15625,0.296875 0.28125,1.234375 l 0.609375,5.140625 h 0.1875 L 4.515625,-4.34375 H 4.5625 l 0.5,4.515625 H 5.265625 L 8.28125,-5.625 c 0.265625,-0.515625 0.375,-0.609375 0.75,-0.71875 z m 0,0"
                 id="path1433" />
            </symbol>
            <symbol
               overflow="visible"
               id="symbol1439">
              <path
                 style="stroke:none"
                 d="m 6.65625,-2.515625 c 0,-1.046875 -0.671875,-1.796875 -0.765625,-1.875 H 5.5625 c 0.0625,0.109375 0.3125,0.59375 0.3125,1.296875 0,1.171875 -0.765625,2.796875 -1.75,2.796875 -0.359375,0 -0.625,-0.21875 -0.625,-0.578125 0,-0.984375 0.53125,-1.921875 0.53125,-2.15625 0,-0.046875 -0.015625,-0.0625 -0.046875,-0.0625 H 3.5 c -0.3125,0 -0.078125,2.796875 -1.609375,2.796875 -0.71875,0 -0.75,-0.703125 -0.75,-0.96875 0,-1.578125 1.15625,-2.921875 1.359375,-3.125 H 2.171875 c -0.015625,0 -1.9375,1.296875 -1.9375,3.09375 0,0.625 0.328125,1.40625 1.359375,1.40625 1.234375,0 1.59375,-1.015625 1.59375,-1.03125 0,0.015625 -0.015625,0.09375 -0.015625,0.21875 0,0.3125 0.125,0.8125 1,0.8125 1.265625,0 2.484375,-1.359375 2.484375,-2.625 z m 0,0"
                 id="path1437" />
            </symbol>
            <symbol
               overflow="visible"
               id="symbol1443">
              <path
                 style="stroke:none"
                 d=""
                 id="path1441" />
            </symbol>
            <symbol
               overflow="visible"
               id="symbol1447">
              <path
                 style="stroke:none"
                 d="m 2.09375,0.5 v -4.90625 l -1.515625,0.109375 v 0.3125 c 0.765625,0 0.859375,0.0625 0.859375,0.5625 v 3.9375 c 0,0.453125 -0.09375,1.3125 -0.734375,1.3125 -0.046875,0 -0.28125,0 -0.53125,-0.140625 C 0.3125,1.65625 0.515625,1.515625 0.515625,1.25 0.515625,0.984375 0.34375,0.78125 0.0625,0.78125 c -0.28125,0 -0.46875,0.203125 -0.46875,0.46875 0,0.515625 0.5625,0.796875 1.140625,0.796875 C 1.46875,2.046875 2.09375,1.40625 2.09375,0.5 Z m 0,-6.515625 c 0,-0.28125 -0.234375,-0.53125 -0.53125,-0.53125 -0.34375,0 -0.53125,0.28125 -0.53125,0.53125 C 1.03125,-5.75 1.25,-5.5 1.5625,-5.5 c 0.328125,0 0.53125,-0.265625 0.53125,-0.515625 z m 0,0"
                 id="path1445" />
            </symbol>
          </g>
        </defs>
        <g
           id="id-c153d8e3-cc00-4fbe-8c21-ec72eade8de5"
           transform="translate(-149.83,-127.624)">
          <g
             style="fill:#000000;fill-opacity:1"
             id="id-58166bd4-4faa-4fd5-9ddf-f92675a75b03">
            <g
               transform="translate(149.111,134.75)"
               id="g1263">
              <path
                 style="stroke:none"
                 d="m 1.28125,1.921875 v -8.96875 h -0.5625 v 8.96875 z m 0,0"
                 id="id-7316cb6b-ea9a-4b98-9468-8243c956484b" />
            </g>
          </g>
          <g
             style="fill:#000000;fill-opacity:1"
             id="id-77839859-2750-4778-9ee5-c0b3961a58d6">
            <g
               transform="translate(151.243,134.765)"
               id="g1196">
              <path
                 style="stroke:none"
                 d="M 9.03125,-6.34375 V -6.515625 H 7.1875 v 0.171875 c 0.546875,0.046875 0.640625,0.109375 0.640625,0.390625 0,0.171875 -0.0625,0.40625 -0.203125,0.671875 L 5.765625,-1.609375 5.359375,-5.625 v -0.140625 c 0,-0.40625 0.140625,-0.53125 0.671875,-0.578125 v -0.171875 h -2.375 v 0.171875 c 0.578125,0.015625 0.6875,0.078125 0.75,0.578125 L 4.5,-5.078125 2.78125,-1.609375 2.34375,-5.65625 2.328125,-5.796875 c 0,-0.390625 0.125,-0.484375 0.734375,-0.546875 V -6.515625 H 0.703125 v 0.171875 c 0.328125,0.03125 0.40625,0.0625 0.515625,0.140625 0.109375,0.125 0.15625,0.296875 0.28125,1.234375 l 0.609375,5.140625 h 0.1875 L 4.515625,-4.34375 H 4.5625 l 0.5,4.515625 H 5.265625 L 8.28125,-5.625 c 0.265625,-0.515625 0.375,-0.609375 0.75,-0.71875 z m 0,0"
                 id="id-2c348af1-3c3b-422a-82e5-a2c4d7229c88" />
            </g>
          </g>
          <g
             style="fill:#000000;fill-opacity:1"
             id="id-be9cc68e-2c70-4351-9219-e167d08ad06b">
            <g
               transform="translate(160.927,134.765)"
               id="g1200">
              <path
                 style="stroke:none"
                 d="M 2.9375,-7.140625 C 1.5,-6.203125 0.484375,-4.59375 0.484375,-2.5625 c 0,1.859375 1.046875,3.734375 2.421875,4.578125 l 0.125,-0.15625 C 1.71875,0.8125 1.328125,-0.390625 1.328125,-2.59375 1.328125,-4.8125 1.75,-5.953125 3.03125,-6.984375 Z m 0,0"
                 id="id-fcbdc131-19a1-4d6d-bf6a-35a5bf676d6c" />
            </g>
          </g>
          <g
             style="fill:#000000;fill-opacity:1"
             id="id-6504115f-44c4-4950-8293-31a78ff479ad">
            <g
               transform="translate(164.643,134.765)"
               id="g1204">
              <path
                 style="stroke:none"
                 d="m 2.09375,0.5 v -4.90625 l -1.515625,0.109375 v 0.3125 c 0.765625,0 0.859375,0.0625 0.859375,0.5625 v 3.9375 c 0,0.453125 -0.09375,1.3125 -0.734375,1.3125 -0.046875,0 -0.28125,0 -0.53125,-0.140625 C 0.3125,1.65625 0.515625,1.515625 0.515625,1.25 0.515625,0.984375 0.34375,0.78125 0.0625,0.78125 c -0.28125,0 -0.46875,0.203125 -0.46875,0.46875 0,0.515625 0.5625,0.796875 1.140625,0.796875 C 1.46875,2.046875 2.09375,1.40625 2.09375,0.5 Z m 0,-6.515625 c 0,-0.28125 -0.234375,-0.53125 -0.53125,-0.53125 -0.34375,0 -0.53125,0.28125 -0.53125,0.53125 C 1.03125,-5.75 1.25,-5.5 1.5625,-5.5 c 0.328125,0 0.53125,-0.265625 0.53125,-0.515625 z m 0,0"
                 id="id-53a040d2-55e9-4d49-aab7-3fdf57332f50" />
            </g>
          </g>
          <g
             style="fill:#000000;fill-opacity:1"
             id="id-95e2cc7d-6188-4809-967c-22399701ef1f">
            <g
               transform="translate(167.687,134.765)"
               id="g1208">
              <path
                 style="stroke:none"
                 d="m 6.65625,-2.515625 c 0,-1.046875 -0.671875,-1.796875 -0.765625,-1.875 H 5.5625 c 0.0625,0.109375 0.3125,0.59375 0.3125,1.296875 0,1.171875 -0.765625,2.796875 -1.75,2.796875 -0.359375,0 -0.625,-0.21875 -0.625,-0.578125 0,-0.984375 0.53125,-1.921875 0.53125,-2.15625 0,-0.046875 -0.015625,-0.0625 -0.046875,-0.0625 H 3.5 c -0.3125,0 -0.078125,2.796875 -1.609375,2.796875 -0.71875,0 -0.75,-0.703125 -0.75,-0.96875 0,-1.578125 1.15625,-2.921875 1.359375,-3.125 H 2.171875 c -0.015625,0 -1.9375,1.296875 -1.9375,3.09375 0,0.625 0.328125,1.40625 1.359375,1.40625 1.234375,0 1.59375,-1.015625 1.59375,-1.03125 0,0.015625 -0.015625,0.09375 -0.015625,0.21875 0,0.3125 0.125,0.8125 1,0.8125 1.265625,0 2.484375,-1.359375 2.484375,-2.625 z m 0,0"
                 id="id-e6745bca-2162-4941-a566-85d2f4a73706" />
            </g>
          </g>
          <g
             style="fill:#000000;fill-opacity:1"
             id="id-4b9adbf7-ecf4-48c9-8fd2-cec5b1444685">
            <g
               transform="translate(174.77,134.765)"
               id="g1212">
              <path
                 style="stroke:none"
                 d="m 0.375,-7.140625 -0.078125,0.15625 c 1.28125,1.03125 1.6875,2.171875 1.6875,4.390625 0,2.203125 -0.375,3.40625 -1.6875,4.453125 l 0.109375,0.15625 c 1.375,-0.84375 2.4375,-2.71875 2.4375,-4.578125 0,-2.03125 -1.015625,-3.640625 -2.46875,-4.578125 z m 0,0"
                 id="id-be23738f-8726-4bd1-95a0-4e1338f47d39" />
            </g>
          </g>
          <g
             style="fill:#000000;fill-opacity:1"
             id="id-20a8b7d3-c531-4eb9-a056-67dc1d1f130d">
            <g
               transform="translate(178.984,134.75)"
               id="g1216">
              <path
                 style="stroke:none"
                 d="m 1.28125,1.921875 v -8.96875 h -0.5625 v 8.96875 z m 0,0"
                 id="id-a69e5b39-dc78-4713-b082-93b46bfb9e5a" />
            </g>
          </g>
        </g>
      </g>
    </g>
  </g>
</svg>
