<?xml version="1.0" encoding="UTF-8" standalone="no"?>
<svg
   xmlns:ns1="http://www.iki.fi/pav/software/textext/"
   xmlns:dc="http://purl.org/dc/elements/1.1/"
   xmlns:cc="http://creativecommons.org/ns#"
   xmlns:rdf="http://www.w3.org/1999/02/22-rdf-syntax-ns#"
   xmlns:svg="http://www.w3.org/2000/svg"
   xmlns="http://www.w3.org/2000/svg"
   xmlns:sodipodi="http://sodipodi.sourceforge.net/DTD/sodipodi-0.dtd"
   xmlns:inkscape="http://www.inkscape.org/namespaces/inkscape"
   sodipodi:docname="window.svg"
   inkscape:version="1.0.1 (1.0.1+r73)"
   id="svg8"
   version="1.1"
   viewBox="0 0 131.87122 54.812702"
   height="54.812702mm"
   width="131.87122mm">
  <defs
     id="defs2">
    <marker
       style="overflow:visible"
       id="marker1448"
       refX="0"
       refY="0"
       orient="auto"
       inkscape:stockid="Arrow2Lend"
       inkscape:isstock="true">
      <path
         transform="matrix(-1.1,0,0,-1.1,-1.1,0)"
         d="M 8.7185878,4.0337352 -2.2072895,0.01601326 8.7185884,-4.0017078 c -1.7454984,2.3720609 -1.7354408,5.6174519 -6e-7,8.035443 z"
         style="fill:#000000;fill-opacity:1;fill-rule:evenodd;stroke:#000000;stroke-width:0.625;stroke-linejoin:round;stroke-opacity:1"
         id="path1446" />
    </marker>
    <marker
       style="overflow:visible"
       id="Arrow2Lstart"
       refX="0"
       refY="0"
       orient="auto"
       inkscape:stockid="Arrow2Lstart"
       inkscape:isstock="true">
      <path
         transform="matrix(1.1,0,0,1.1,1.1,0)"
         d="M 8.7185878,4.0337352 -2.2072895,0.01601326 8.7185884,-4.0017078 c -1.7454984,2.3720609 -1.7354408,5.6174519 -6e-7,8.035443 z"
         style="fill:#000000;fill-opacity:1;fill-rule:evenodd;stroke:#000000;stroke-width:0.625;stroke-linejoin:round;stroke-opacity:1"
         id="path2046" />
    </marker>
    <marker
       style="overflow:visible"
       id="marker3639"
       refX="0"
       refY="0"
       orient="auto"
       inkscape:stockid="Arrow2Lend"
       inkscape:isstock="true">
      <path
         transform="matrix(-1.1,0,0,-1.1,-1.1,0)"
         d="M 8.7185878,4.0337352 -2.2072895,0.01601326 8.7185884,-4.0017078 c -1.7454984,2.3720609 -1.7354408,5.6174519 -6e-7,8.035443 z"
         style="fill:#000000;fill-opacity:1;fill-rule:evenodd;stroke:#000000;stroke-width:0.625;stroke-linejoin:round;stroke-opacity:1"
         id="path3637" />
    </marker>
    <marker
       style="overflow:visible"
       id="marker3022"
       refX="0"
       refY="0"
       orient="auto"
       inkscape:stockid="Arrow2Lend"
       inkscape:isstock="true">
      <path
         transform="matrix(-1.1,0,0,-1.1,-1.1,0)"
         d="M 8.7185878,4.0337352 -2.2072895,0.01601326 8.7185884,-4.0017078 c -1.7454984,2.3720609 -1.7354408,5.6174519 -6e-7,8.035443 z"
         style="fill:#000000;fill-opacity:1;fill-rule:evenodd;stroke:#000000;stroke-width:0.625;stroke-linejoin:round;stroke-opacity:1"
         id="path3020" />
    </marker>
    <marker
       style="overflow:visible"
       id="Arrow2Lend"
       refX="0"
       refY="0"
       orient="auto"
       inkscape:stockid="Arrow2Lend"
       inkscape:isstock="true"
       inkscape:collect="always">
      <path
         transform="matrix(-1.1,0,0,-1.1,-1.1,0)"
         d="M 8.7185878,4.0337352 -2.2072895,0.01601326 8.7185884,-4.0017078 c -1.7454984,2.3720609 -1.7354408,5.6174519 -6e-7,8.035443 z"
         style="fill:#000000;fill-opacity:1;fill-rule:evenodd;stroke:#000000;stroke-width:0.625;stroke-linejoin:round;stroke-opacity:1"
         id="path2049" />
    </marker>
    <marker
       style="overflow:visible"
       id="DotL"
       refX="0"
       refY="0"
       orient="auto"
       inkscape:stockid="DotL"
       inkscape:isstock="true">
      <path
         transform="matrix(0.8,0,0,0.8,5.92,0.8)"
         style="fill-rule:evenodd;stroke:#000000;stroke-width:1pt"
         d="m -2.5,-1 c 0,2.76 -2.24,5 -5,5 -2.76,0 -5,-2.24 -5,-5 0,-2.76 2.24,-5 5,-5 2.76,0 5,2.24 5,5 z"
         id="path2089" />
    </marker>
    <marker
       style="overflow:visible"
       id="Arrow1Lstart"
       refX="0"
       refY="0"
       orient="auto"
       inkscape:stockid="Arrow1Lstart"
       inkscape:isstock="true">
      <path
         transform="matrix(0.8,0,0,0.8,10,0)"
         style="fill-rule:evenodd;stroke:#000000;stroke-width:1pt"
         d="M 0,0 5,-5 -12.5,0 5,5 Z"
         id="path2028" />
    </marker>
    <pattern
       patternUnits="userSpaceOnUse"
       width="0.94488189"
       height="106.05568"
       patternTransform="translate(274.8043,212.58749)"
       id="pattern835">
      <path
         style="font-variation-settings:normal;opacity:1;vector-effect:none;fill:none;fill-opacity:1;stroke:#000000;stroke-width:0.944882;stroke-linecap:round;stroke-linejoin:round;stroke-miterlimit:4;stroke-dasharray:none;stroke-dashoffset:0;stroke-opacity:1;stop-color:#000000;stop-opacity:1"
         d="M 0.47244094,0.47244094 V 105.58324"
         id="path833" />
    </pattern>
    <marker
       style="overflow:visible"
       id="marker3022-7"
       refX="0"
       refY="0"
       orient="auto"
       inkscape:stockid="Arrow2Lend"
       inkscape:isstock="true">
      <path
         transform="matrix(-1.1,0,0,-1.1,-1.1,0)"
         d="M 8.7185878,4.0337352 -2.2072895,0.01601326 8.7185884,-4.0017078 c -1.7454984,2.3720609 -1.7354408,5.6174519 -6e-7,8.035443 z"
         style="fill:#000000;fill-opacity:1;fill-rule:evenodd;stroke:#000000;stroke-width:0.625;stroke-linejoin:round;stroke-opacity:1"
         id="path3020-5" />
    </marker>
    <g
       id="id-b13826fb-21c7-470a-ab94-e295776253af">
      <symbol
         overflow="visible"
         id="id-9b261855-7fc8-4c54-974c-4a7974433fc6">
        <path
           style="stroke:none"
           d=""
           id="id-98e290e1-a7df-4186-82dc-dfc604614152" />
      </symbol>
      <symbol
         overflow="visible"
         id="id-c76f7bb1-ef70-4f20-8fcc-6ced920f482b">
        <path
           style="stroke:none"
           d="m 6.65625,-2.515625 c 0,-1.046875 -0.671875,-1.796875 -0.765625,-1.875 H 5.5625 c 0.0625,0.109375 0.3125,0.59375 0.3125,1.296875 0,1.171875 -0.765625,2.796875 -1.75,2.796875 -0.359375,0 -0.625,-0.21875 -0.625,-0.578125 0,-0.984375 0.53125,-1.921875 0.53125,-2.15625 0,-0.046875 -0.015625,-0.0625 -0.046875,-0.0625 H 3.5 c -0.3125,0 -0.078125,2.796875 -1.609375,2.796875 -0.71875,0 -0.75,-0.703125 -0.75,-0.96875 0,-1.578125 1.15625,-2.921875 1.359375,-3.125 H 2.171875 c -0.015625,0 -1.9375,1.296875 -1.9375,3.09375 0,0.625 0.328125,1.40625 1.359375,1.40625 1.234375,0 1.59375,-1.015625 1.59375,-1.03125 0,0.015625 -0.015625,0.09375 -0.015625,0.21875 0,0.3125 0.125,0.8125 1,0.8125 1.265625,0 2.484375,-1.359375 2.484375,-2.625 z m 0,0"
           id="id-37538d18-7c7a-46cd-8fe0-bdad3e484aff" />
      </symbol>
    </g>
    <g
       id="id-138a881e-282c-4701-9cf7-412c256ef9c7">
      <symbol
         overflow="visible"
         id="id-9b067aab-da59-4d8a-b38f-bf57b8bd091f">
        <path
           style="stroke:none"
           d=""
           id="id-270faaba-ba3c-4713-98b9-126cacb1d06f" />
      </symbol>
      <symbol
         overflow="visible"
         id="id-82822651-f58e-4930-b51a-d48346cbadca">
        <path
           style="stroke:none"
           d="m 1.28125,1.921875 v -8.96875 h -0.5625 v 8.96875 z m 0,0"
           id="id-cd41b421-23e6-49eb-99c0-da32851d4d12" />
      </symbol>
      <symbol
         overflow="visible"
         id="id-144c6640-5833-45fd-b456-1b64c2e9dc04">
        <path
           style="stroke:none"
           d="M 2.9375,-7.140625 C 1.5,-6.203125 0.484375,-4.59375 0.484375,-2.5625 c 0,1.859375 1.046875,3.734375 2.421875,4.578125 l 0.125,-0.15625 C 1.71875,0.8125 1.328125,-0.390625 1.328125,-2.59375 1.328125,-4.8125 1.75,-5.953125 3.03125,-6.984375 Z m 0,0"
           id="id-6a36c83a-068a-41b0-9e33-69d50f651854" />
      </symbol>
      <symbol
         overflow="visible"
         id="id-2996bd16-ce94-4fa0-a64b-0d28f043945c">
        <path
           style="stroke:none"
           d="m 0.375,-7.140625 -0.078125,0.15625 c 1.28125,1.03125 1.6875,2.171875 1.6875,4.390625 0,2.203125 -0.375,3.40625 -1.6875,4.453125 l 0.109375,0.15625 c 1.375,-0.84375 2.4375,-2.71875 2.4375,-4.578125 0,-2.03125 -1.015625,-3.640625 -2.46875,-4.578125 z m 0,0"
           id="id-1bbd2f7d-1a9f-429d-a90a-b160546d29aa" />
      </symbol>
      <symbol
         overflow="visible"
         id="id-d0ff8e9f-a23c-4492-a403-9f6f1e19ecb6">
        <path
           style="stroke:none"
           d=""
           id="id-6e3de7d5-6cd1-4cbc-a816-1c731aeb1d2c" />
      </symbol>
      <symbol
         overflow="visible"
         id="id-ce4b81f5-7897-4442-bfe2-1587ffac6e12">
        <path
           style="stroke:none"
           d="m 4.609375,-5.984375 c 0,-0.3125 -0.46875,-0.5625 -1.28125,-0.5625 -0.796875,0 -1.4375,0.453125 -1.4375,1.046875 0,0.671875 0.6875,1.390625 0.6875,1.390625 -0.015625,0 -2.40625,0.390625 -2.40625,2.65625 0,0.671875 0.359375,1.609375 1.359375,1.609375 1.421875,0 2.546875,-1.296875 2.546875,-2.921875 0,-1.65625 -1.8125,-1.875 -1.8125,-2.84375 0,-0.4375 0.53125,-0.625 0.84375,-0.625 0.9375,0 0.734375,0.5625 1.140625,0.5625 0.21875,0 0.359375,-0.140625 0.359375,-0.3125 z M 3.28125,-2.4375 c 0,1.28125 -0.828125,2.328125 -1.5,2.328125 -0.5625,0 -0.765625,-0.765625 -0.765625,-1.3125 0,-2.3125 1.734375,-2.46875 1.75,-2.46875 0,0 0.515625,0.640625 0.515625,1.453125 z m 0,0"
           id="id-35f8c084-394c-4384-bd52-b563242265d1" />
      </symbol>
      <symbol
         overflow="visible"
         id="id-45943086-5f8d-4b49-8b30-260bd2f54e99">
        <path
           style="stroke:none"
           d="m 6.65625,-2.515625 c 0,-1.046875 -0.671875,-1.796875 -0.765625,-1.875 H 5.5625 c 0.0625,0.109375 0.3125,0.59375 0.3125,1.296875 0,1.171875 -0.765625,2.796875 -1.75,2.796875 -0.359375,0 -0.625,-0.21875 -0.625,-0.578125 0,-0.984375 0.53125,-1.921875 0.53125,-2.15625 0,-0.046875 -0.015625,-0.0625 -0.046875,-0.0625 H 3.5 c -0.3125,0 -0.078125,2.796875 -1.609375,2.796875 -0.71875,0 -0.75,-0.703125 -0.75,-0.96875 0,-1.578125 1.15625,-2.921875 1.359375,-3.125 H 2.171875 c -0.015625,0 -1.9375,1.296875 -1.9375,3.09375 0,0.625 0.328125,1.40625 1.359375,1.40625 1.234375,0 1.59375,-1.015625 1.59375,-1.03125 0,0.015625 -0.015625,0.09375 -0.015625,0.21875 0,0.3125 0.125,0.8125 1,0.8125 1.265625,0 2.484375,-1.359375 2.484375,-2.625 z m 0,0"
           id="id-841cb9aa-f929-4ca1-9eec-e561c31c282e" />
      </symbol>
      <symbol
         overflow="visible"
         id="id-f5c556b0-9251-4b5f-900a-51b342c4cb13">
        <path
           style="stroke:none"
           d=""
           id="id-f396d587-1c46-4a19-992f-a06af1d53e53" />
      </symbol>
      <symbol
         overflow="visible"
         id="id-69644edb-30a1-45f9-b536-76a918942236">
        <path
           style="stroke:none"
           d="m 2.09375,0.5 v -4.90625 l -1.515625,0.109375 v 0.3125 c 0.765625,0 0.859375,0.0625 0.859375,0.5625 v 3.9375 c 0,0.453125 -0.09375,1.3125 -0.734375,1.3125 -0.046875,0 -0.28125,0 -0.53125,-0.140625 C 0.3125,1.65625 0.515625,1.515625 0.515625,1.25 0.515625,0.984375 0.34375,0.78125 0.0625,0.78125 c -0.28125,0 -0.46875,0.203125 -0.46875,0.46875 0,0.515625 0.5625,0.796875 1.140625,0.796875 C 1.46875,2.046875 2.09375,1.40625 2.09375,0.5 Z m 0,-6.515625 c 0,-0.28125 -0.234375,-0.53125 -0.53125,-0.53125 -0.34375,0 -0.53125,0.28125 -0.53125,0.53125 C 1.03125,-5.75 1.25,-5.5 1.5625,-5.5 c 0.328125,0 0.53125,-0.265625 0.53125,-0.515625 z m 0,0"
           id="id-48691b66-25c3-4380-ad71-c4f48b61a417" />
      </symbol>
    </g>
    <g
       id="id-b8aa4be0-c6fe-4fe7-a2fc-c384a52b236e">
      <symbol
         overflow="visible"
         id="id-ece51c6a-8093-40da-ab8c-f36868b73571">
        <path
           style="stroke:none"
           d=""
           id="id-123ec5de-6f70-49a4-90fb-0587efde55ea" />
      </symbol>
      <symbol
         overflow="visible"
         id="id-86ccad23-6f5a-4abf-9755-1b075fda7f77">
        <path
           style="stroke:none"
           d="m 1.28125,1.921875 v -8.96875 h -0.5625 v 8.96875 z m 0,0"
           id="id-2deaeaeb-518a-4bf8-a949-7e13291b61d6" />
      </symbol>
      <symbol
         overflow="visible"
         id="id-41fdc9f0-bb34-4b41-bfe2-f60845b72bf8">
        <path
           style="stroke:none"
           d="M 2.9375,-7.140625 C 1.5,-6.203125 0.484375,-4.59375 0.484375,-2.5625 c 0,1.859375 1.046875,3.734375 2.421875,4.578125 l 0.125,-0.15625 C 1.71875,0.8125 1.328125,-0.390625 1.328125,-2.59375 1.328125,-4.8125 1.75,-5.953125 3.03125,-6.984375 Z m 0,0"
           id="id-22f33e36-592a-4894-8c03-e93181065109" />
      </symbol>
      <symbol
         overflow="visible"
         id="id-fe2303f2-49cb-45cd-b904-278d43850a88">
        <path
           style="stroke:none"
           d="m 0.375,-7.140625 -0.078125,0.15625 c 1.28125,1.03125 1.6875,2.171875 1.6875,4.390625 0,2.203125 -0.375,3.40625 -1.6875,4.453125 l 0.109375,0.15625 c 1.375,-0.84375 2.4375,-2.71875 2.4375,-4.578125 0,-2.03125 -1.015625,-3.640625 -2.46875,-4.578125 z m 0,0"
           id="id-67a69bc1-72b7-4f32-b2a7-6c4fc073ba7a" />
      </symbol>
      <symbol
         overflow="visible"
         id="id-d53da24e-27a0-402f-a15a-42eb3be4920b">
        <path
           style="stroke:none"
           d=""
           id="id-885ffc0c-9e5c-4506-8e71-bf5d54724e9e" />
      </symbol>
      <symbol
         overflow="visible"
         id="id-171d247f-9e6d-4f0d-90ab-615c69bf635e">
        <path
           style="stroke:none"
           d="M 9.03125,-6.34375 V -6.515625 H 7.1875 v 0.171875 c 0.546875,0.046875 0.640625,0.109375 0.640625,0.390625 0,0.171875 -0.0625,0.40625 -0.203125,0.671875 L 5.765625,-1.609375 5.359375,-5.625 v -0.140625 c 0,-0.40625 0.140625,-0.53125 0.671875,-0.578125 v -0.171875 h -2.375 v 0.171875 c 0.578125,0.015625 0.6875,0.078125 0.75,0.578125 L 4.5,-5.078125 2.78125,-1.609375 2.34375,-5.65625 2.328125,-5.796875 c 0,-0.390625 0.125,-0.484375 0.734375,-0.546875 V -6.515625 H 0.703125 v 0.171875 c 0.328125,0.03125 0.40625,0.0625 0.515625,0.140625 0.109375,0.125 0.15625,0.296875 0.28125,1.234375 l 0.609375,5.140625 h 0.1875 L 4.515625,-4.34375 H 4.5625 l 0.5,4.515625 H 5.265625 L 8.28125,-5.625 c 0.265625,-0.515625 0.375,-0.609375 0.75,-0.71875 z m 0,0"
           id="id-67d74645-2a1d-4ec8-84ed-fcb0ef1ba9de" />
      </symbol>
      <symbol
         overflow="visible"
         id="id-a03ce7c8-4f30-4f90-ba1a-741400edd6de">
        <path
           style="stroke:none"
           d="m 6.65625,-2.515625 c 0,-1.046875 -0.671875,-1.796875 -0.765625,-1.875 H 5.5625 c 0.0625,0.109375 0.3125,0.59375 0.3125,1.296875 0,1.171875 -0.765625,2.796875 -1.75,2.796875 -0.359375,0 -0.625,-0.21875 -0.625,-0.578125 0,-0.984375 0.53125,-1.921875 0.53125,-2.15625 0,-0.046875 -0.015625,-0.0625 -0.046875,-0.0625 H 3.5 c -0.3125,0 -0.078125,2.796875 -1.609375,2.796875 -0.71875,0 -0.75,-0.703125 -0.75,-0.96875 0,-1.578125 1.15625,-2.921875 1.359375,-3.125 H 2.171875 c -0.015625,0 -1.9375,1.296875 -1.9375,3.09375 0,0.625 0.328125,1.40625 1.359375,1.40625 1.234375,0 1.59375,-1.015625 1.59375,-1.03125 0,0.015625 -0.015625,0.09375 -0.015625,0.21875 0,0.3125 0.125,0.8125 1,0.8125 1.265625,0 2.484375,-1.359375 2.484375,-2.625 z m 0,0"
           id="id-dc282b84-d5b9-49df-aedc-cec05f0d3e96" />
      </symbol>
      <symbol
         overflow="visible"
         id="id-0cc1f3e6-b9ad-4eaf-9695-9fef6cc5a14d">
        <path
           style="stroke:none"
           d=""
           id="id-e5ceab1c-c8df-401c-b70d-b0396f27f7f1" />
      </symbol>
      <symbol
         overflow="visible"
         id="id-f5bbaa3b-ee28-449f-892a-ac0317fc031c">
        <path
           style="stroke:none"
           d="m 2.09375,0.5 v -4.90625 l -1.515625,0.109375 v 0.3125 c 0.765625,0 0.859375,0.0625 0.859375,0.5625 v 3.9375 c 0,0.453125 -0.09375,1.3125 -0.734375,1.3125 -0.046875,0 -0.28125,0 -0.53125,-0.140625 C 0.3125,1.65625 0.515625,1.515625 0.515625,1.25 0.515625,0.984375 0.34375,0.78125 0.0625,0.78125 c -0.28125,0 -0.46875,0.203125 -0.46875,0.46875 0,0.515625 0.5625,0.796875 1.140625,0.796875 C 1.46875,2.046875 2.09375,1.40625 2.09375,0.5 Z m 0,-6.515625 c 0,-0.28125 -0.234375,-0.53125 -0.53125,-0.53125 -0.34375,0 -0.53125,0.28125 -0.53125,0.53125 C 1.03125,-5.75 1.25,-5.5 1.5625,-5.5 c 0.328125,0 0.53125,-0.265625 0.53125,-0.515625 z m 0,0"
           id="id-ae12bdd2-d776-4cac-98f2-cc4e14f1953c" />
      </symbol>
    </g>
  </defs>
  <sodipodi:namedview
     id="base"
     pagecolor="#ffffff"
     bordercolor="#666666"
     borderopacity="1.0"
     inkscape:pageopacity="0.0"
     inkscape:pageshadow="2"
     inkscape:zoom="1.4"
     inkscape:cx="421.06568"
     inkscape:cy="112.71512"
     inkscape:document-units="mm"
     inkscape:current-layer="layer1"
     inkscape:document-rotation="0"
     showgrid="false"
     inkscape:window-width="2160"
     inkscape:window-height="1360"
     inkscape:window-x="0"
     inkscape:window-y="44"
     inkscape:window-maximized="1"
     inkscape:snap-intersection-paths="true"
     inkscape:snap-bbox="true"
     inkscape:snap-center="true"
     fit-margin-top="0"
     fit-margin-left="0"
     fit-margin-right="0"
     fit-margin-bottom="0"
     inkscape:object-paths="false"
     inkscape:snap-smooth-nodes="true" />
  <metadata
     id="metadata5">
    <rdf:RDF>
      <cc:Work
         rdf:about="">
        <dc:format>image/svg+xml</dc:format>
        <dc:type
           rdf:resource="http://purl.org/dc/dcmitype/StillImage" />
        <dc:title></dc:title>
      </cc:Work>
    </rdf:RDF>
  </metadata>
  <g
     inkscape:label="Layer 1"
     inkscape:groupmode="layer"
     id="layer1"
     transform="translate(-122.77548,-147.21465)">
    <g
       id="g1824"
       transform="translate(0,1.01385)">
      <path
         style="font-variation-settings:normal;opacity:1;vector-effect:none;fill:#000000;fill-opacity:1;stroke:#000000;stroke-width:0.25;stroke-linecap:round;stroke-linejoin:round;stroke-miterlimit:4;stroke-dasharray:none;stroke-dashoffset:0;stroke-opacity:1;marker-end:url(#Arrow2Lend);stop-color:#000000;stop-opacity:1"
         d="M 131.29383,199.83178 V 146.61873"
         id="path2536"
         inkscape:tile-cx="58.099355"
         inkscape:tile-cy="77.321884"
         inkscape:tile-w="0.25000001"
         inkscape:tile-h="29.156812"
         inkscape:tile-x0="57.974355"
         inkscape:tile-y0="62.743478" />
      <path
         id="path2586"
         style="font-variation-settings:normal;opacity:1;vector-effect:none;fill:none;fill-opacity:1;stroke:#000000;stroke-width:0.25;stroke-linecap:round;stroke-linejoin:round;stroke-miterlimit:4;stroke-dasharray:1, 1;stroke-dashoffset:0;stroke-opacity:1;stop-color:#000000;stop-opacity:1"
         d="m 219.29126,178.68359 c 11.22538,-7.85268 14.39011,-18.48469 28.30785,-23.53103" />
      <path
         id="path1007"
         style="font-variation-settings:normal;opacity:1;vector-effect:none;fill:none;fill-opacity:1;stroke:#000000;stroke-width:0.25;stroke-linecap:round;stroke-linejoin:round;stroke-miterlimit:4;stroke-dasharray:none;stroke-dashoffset:0;stroke-opacity:1;stop-color:#000000;stop-opacity:1"
         d="m 131.1559,182.90593 c 8.08724,-8.13412 24.00438,-21.76345 36.00553,-17.1067 16.77474,6.50903 30.9519,23.90836 46.81283,16.03431 1.9703,-0.97815 3.72474,-2.03609 5.317,-3.14995" />
      <path
         id="path1005"
         style="font-variation-settings:normal;opacity:1;vector-effect:none;fill:none;fill-opacity:1;stroke:#000000;stroke-width:0.25;stroke-linecap:round;stroke-linejoin:round;stroke-miterlimit:4;stroke-dasharray:1, 1;stroke-dashoffset:0;stroke-opacity:1;stop-color:#000000;stop-opacity:1"
         d="m 125.96111,188.5074 c 0,0 1.978,-2.36602 5.19479,-5.60147" />
      <path
         style="font-variation-settings:normal;opacity:1;vector-effect:none;fill:none;fill-opacity:1;stroke:#000000;stroke-width:0.25;stroke-linecap:round;stroke-linejoin:round;stroke-miterlimit:4;stroke-dasharray:none;stroke-dashoffset:0;stroke-opacity:1;marker-end:url(#marker1448);stop-color:#000000;stop-opacity:1"
         d="M 122.90048,199.82711 H 254.22877"
         id="path2588" />
      <g
         transform="matrix(0.529167,0,0,0.529167,248.78811,194.63753)"
         ns1:version="1.1.0"
         ns1:texconverter="xelatex"
         ns1:pdfconverter="inkscape"
         ns1:text="$t$"
         ns1:preamble="/home/xiaocy/.config/inkscape/extensions/textext/default_packages.tex"
         ns1:scale="1.5"
         ns1:alignment="middle center"
         ns1:inkscapeversion="1.0.1"
         ns1:jacobian_sqrt="0.529167"
         id="g4261">
        <defs
           id="id-9094ae7b-16df-47a7-8c30-0b98bd7f79f5">
          <g
             id="id-4889fdc4-d5f6-4993-af67-ffa05dd4c15b">
            <symbol
               overflow="visible"
               id="id-405dfd00-09a3-487e-be55-8b7e52e5dce0">
              <path
                 style="stroke:none"
                 d=""
                 id="id-e1800f94-4336-4756-885e-47afab5cb368" />
            </symbol>
            <symbol
               overflow="visible"
               id="id-4c6eded4-0a25-48c6-969d-1885d650a950">
              <path
                 style="stroke:none"
                 d="M 2.953125,-4.265625 H 2.15625 l 0.28125,-1.03125 c 0,-0.015625 0,-0.03125 0,-0.046875 0,-0.0625 -0.03125,-0.09375 -0.078125,-0.09375 -0.0625,0 -0.09375,0 -0.140625,0.078125 -0.953125,1.25 -1.65625,1.03125 -1.65625,1.359375 0,0 0,0.015625 0.015625,0.046875 H 1.3125 l -0.71875,2.75 c -0.03125,0.125 -0.21875,0.75 -0.21875,0.9375 0,0.21875 0.203125,0.375 0.46875,0.375 0.46875,0 0.796875,-0.28125 1.421875,-1.203125 l -0.125,-0.078125 c -0.5,0.640625 -0.65625,0.796875 -0.8125,0.796875 -0.09375,0 -0.15625,-0.078125 -0.15625,-0.203125 0,-0.015625 0,-0.015625 0.015625,-0.046875 l 0.875,-3.328125 h 0.84375 z m 0,0"
                 id="id-90c55466-eaec-4a3e-b2df-106e8248ff59" />
            </symbol>
          </g>
        </defs>
        <g
           id="id-b7126a61-e272-4af7-98df-5df558c78491"
           transform="translate(-149.047,-129.327)">
          <g
             style="fill:#000000;fill-opacity:1"
             id="id-2e9f832b-a1e1-485b-aede-3d113f7b26fd">
            <g
               transform="translate(148.672,134.765)"
               id="g4257">
              <path
                 style="stroke:none"
                 d="M 2.953125,-4.265625 H 2.15625 l 0.28125,-1.03125 c 0,-0.015625 0,-0.03125 0,-0.046875 0,-0.0625 -0.03125,-0.09375 -0.078125,-0.09375 -0.0625,0 -0.09375,0 -0.140625,0.078125 -0.953125,1.25 -1.65625,1.03125 -1.65625,1.359375 0,0 0,0.015625 0.015625,0.046875 H 1.3125 l -0.71875,2.75 c -0.03125,0.125 -0.21875,0.75 -0.21875,0.9375 0,0.21875 0.203125,0.375 0.46875,0.375 0.46875,0 0.796875,-0.28125 1.421875,-1.203125 l -0.125,-0.078125 c -0.5,0.640625 -0.65625,0.796875 -0.8125,0.796875 -0.09375,0 -0.15625,-0.078125 -0.15625,-0.203125 0,-0.015625 0,-0.015625 0.015625,-0.046875 l 0.875,-3.328125 h 0.84375 z m 0,0"
                 id="id-3f6646a0-1f8b-4f6b-a369-bd44a226ea18" />
            </g>
          </g>
        </g>
      </g>
      <g
         transform="matrix(0.529167,0,0,0.529167,133.24986,150.21214)"
         ns1:version="1.1.0"
         ns1:texconverter="xelatex"
         ns1:pdfconverter="inkscape"
         ns1:text="$x$"
         ns1:preamble="/home/xiaocy/.config/inkscape/extensions/textext/default_packages.tex"
         ns1:scale="1.5"
         ns1:alignment="middle center"
         ns1:inkscapeversion="1.0.1"
         ns1:jacobian_sqrt="0.529167"
         id="g4414">
        <defs
           id="id-d9519c2f-f147-4d3d-a44d-58f8421968eb">
          <g
             id="id-a14b7590-7846-4012-a0e8-5ed67a6f3b48">
            <symbol
               overflow="visible"
               id="id-7b1eb8b7-9b2f-4437-80cb-8d191b07a838">
              <path
                 style="stroke:none"
                 d=""
                 id="id-31d73f9e-ab80-4b83-9c79-a32f0a4dcd75" />
            </symbol>
            <symbol
               overflow="visible"
               id="id-279518b8-e758-4f4a-81d2-449f84833060">
              <path
                 style="stroke:none"
                 d="M 4.140625,-1.03125 4,-1.109375 C 3.921875,-1 3.875,-0.953125 3.78125,-0.84375 3.5625,-0.53125 3.453125,-0.4375 3.3125,-0.4375 c -0.125,0 -0.21875,-0.125 -0.296875,-0.40625 C 3,-0.9375 2.984375,-0.984375 2.984375,-1 2.734375,-1.9375 2.625,-2.484375 2.625,-2.625 c 0.4375,-0.78125 0.796875,-1.21875 0.96875,-1.21875 0.0625,0 0.15625,0.03125 0.25,0.078125 0.109375,0.078125 0.1875,0.09375 0.265625,0.09375 0.203125,0 0.34375,-0.140625 0.34375,-0.359375 0,-0.21875 -0.171875,-0.359375 -0.40625,-0.359375 -0.4375,0 -0.8125,0.359375 -1.5,1.421875 L 2.4375,-3.515625 c -0.140625,-0.6875 -0.25,-0.875 -0.53125,-0.875 -0.21875,0 -0.546875,0.078125 -1.15625,0.28125 L 0.640625,-4.0625 0.671875,-3.921875 0.84375,-3.953125 C 1.03125,-4 1.15625,-4.03125 1.234375,-4.03125 c 0.25,0 0.3125,0.09375 0.453125,0.6875 l 0.28125,1.234375 -0.8125,1.15625 C 0.953125,-0.640625 0.75,-0.46875 0.640625,-0.46875 0.59375,-0.46875 0.484375,-0.5 0.390625,-0.5625 0.265625,-0.625 0.15625,-0.65625 0.0625,-0.65625 c -0.1875,0 -0.328125,0.140625 -0.328125,0.34375 0,0.265625 0.1875,0.421875 0.5,0.421875 0.296875,0 0.421875,-0.09375 0.921875,-0.6875 L 2.046875,-1.75 l 0.3125,1.1875 c 0.125,0.515625 0.25,0.671875 0.578125,0.671875 0.375,0 0.625,-0.234375 1.203125,-1.140625 z m 0,0"
                 id="id-d1197bf3-484f-4a0f-8a0b-ca96e2b72dc6" />
            </symbol>
          </g>
        </defs>
        <g
           id="id-f42858c8-4f4a-4971-88c5-108d06f981f0"
           transform="translate(-148.446,-130.374)">
          <g
             style="fill:#000000;fill-opacity:1"
             id="id-06420367-ffd5-4ece-b397-500116f0adab">
            <g
               transform="translate(148.712,134.765)"
               id="g4410">
              <path
                 style="stroke:none"
                 d="M 4.140625,-1.03125 4,-1.109375 C 3.921875,-1 3.875,-0.953125 3.78125,-0.84375 3.5625,-0.53125 3.453125,-0.4375 3.3125,-0.4375 c -0.125,0 -0.21875,-0.125 -0.296875,-0.40625 C 3,-0.9375 2.984375,-0.984375 2.984375,-1 2.734375,-1.9375 2.625,-2.484375 2.625,-2.625 c 0.4375,-0.78125 0.796875,-1.21875 0.96875,-1.21875 0.0625,0 0.15625,0.03125 0.25,0.078125 0.109375,0.078125 0.1875,0.09375 0.265625,0.09375 0.203125,0 0.34375,-0.140625 0.34375,-0.359375 0,-0.21875 -0.171875,-0.359375 -0.40625,-0.359375 -0.4375,0 -0.8125,0.359375 -1.5,1.421875 L 2.4375,-3.515625 c -0.140625,-0.6875 -0.25,-0.875 -0.53125,-0.875 -0.21875,0 -0.546875,0.078125 -1.15625,0.28125 L 0.640625,-4.0625 0.671875,-3.921875 0.84375,-3.953125 C 1.03125,-4 1.15625,-4.03125 1.234375,-4.03125 c 0.25,0 0.3125,0.09375 0.453125,0.6875 l 0.28125,1.234375 -0.8125,1.15625 C 0.953125,-0.640625 0.75,-0.46875 0.640625,-0.46875 0.59375,-0.46875 0.484375,-0.5 0.390625,-0.5625 0.265625,-0.625 0.15625,-0.65625 0.0625,-0.65625 c -0.1875,0 -0.328125,0.140625 -0.328125,0.34375 0,0.265625 0.1875,0.421875 0.5,0.421875 0.296875,0 0.421875,-0.09375 0.921875,-0.6875 L 2.046875,-1.75 l 0.3125,1.1875 c 0.125,0.515625 0.25,0.671875 0.578125,0.671875 0.375,0 0.625,-0.234375 1.203125,-1.140625 z m 0,0"
                 id="id-31415dfa-c787-44f8-83a7-04ed38710050" />
            </g>
          </g>
        </g>
      </g>
      <g
         transform="matrix(0.529167,0,0,0.529167,196.13082,153.39821)"
         ns1:version="1.1.0"
         ns1:texconverter="xelatex"
         ns1:pdfconverter="inkscape"
         ns1:text="$x(t) \\rightarrow x(t)w(t)$"
         ns1:preamble="/home/xiaocy/.config/inkscape/extensions/textext/default_packages.tex"
         ns1:scale="1.5"
         ns1:alignment="middle center"
         ns1:inkscapeversion="1.0.1"
         ns1:jacobian_sqrt="0.529167"
         id="g1273">
        <defs
           id="id-deff532d-9cd5-49a3-8952-f858a0dc8128">
          <g
             id="id-f86c6b79-b070-4854-9820-e0129f7196bb">
            <symbol
               overflow="visible"
               id="id-c311ab68-345e-4fc4-9184-7290b7156aa7">
              <path
                 style="stroke:none"
                 d=""
                 id="id-403df087-6f95-4c41-ac56-cf15fd4d5a4e" />
            </symbol>
            <symbol
               overflow="visible"
               id="id-165076ae-e90c-4edb-b001-068519693403">
              <path
                 style="stroke:none"
                 d="M 4.140625,-1.03125 4,-1.109375 C 3.921875,-1 3.875,-0.953125 3.78125,-0.84375 3.5625,-0.53125 3.453125,-0.4375 3.3125,-0.4375 c -0.125,0 -0.21875,-0.125 -0.296875,-0.40625 C 3,-0.9375 2.984375,-0.984375 2.984375,-1 2.734375,-1.9375 2.625,-2.484375 2.625,-2.625 c 0.4375,-0.78125 0.796875,-1.21875 0.96875,-1.21875 0.0625,0 0.15625,0.03125 0.25,0.078125 0.109375,0.078125 0.1875,0.09375 0.265625,0.09375 0.203125,0 0.34375,-0.140625 0.34375,-0.359375 0,-0.21875 -0.171875,-0.359375 -0.40625,-0.359375 -0.4375,0 -0.8125,0.359375 -1.5,1.421875 L 2.4375,-3.515625 c -0.140625,-0.6875 -0.25,-0.875 -0.53125,-0.875 -0.21875,0 -0.546875,0.078125 -1.15625,0.28125 L 0.640625,-4.0625 0.671875,-3.921875 0.84375,-3.953125 C 1.03125,-4 1.15625,-4.03125 1.234375,-4.03125 c 0.25,0 0.3125,0.09375 0.453125,0.6875 l 0.28125,1.234375 -0.8125,1.15625 C 0.953125,-0.640625 0.75,-0.46875 0.640625,-0.46875 0.59375,-0.46875 0.484375,-0.5 0.390625,-0.5625 0.265625,-0.625 0.15625,-0.65625 0.0625,-0.65625 c -0.1875,0 -0.328125,0.140625 -0.328125,0.34375 0,0.265625 0.1875,0.421875 0.5,0.421875 0.296875,0 0.421875,-0.09375 0.921875,-0.6875 L 2.046875,-1.75 l 0.3125,1.1875 c 0.125,0.515625 0.25,0.671875 0.578125,0.671875 0.375,0 0.625,-0.234375 1.203125,-1.140625 z m 0,0"
                 id="id-5db9fae7-936d-420b-8ba4-a4f1c1aacd8b" />
            </symbol>
            <symbol
               overflow="visible"
               id="id-3d80cac0-c38b-4429-aa10-89ab73c48cb4">
              <path
                 style="stroke:none"
                 d="M 2.953125,-4.265625 H 2.15625 l 0.28125,-1.03125 c 0,-0.015625 0,-0.03125 0,-0.046875 0,-0.0625 -0.03125,-0.09375 -0.078125,-0.09375 -0.0625,0 -0.09375,0 -0.140625,0.078125 -0.953125,1.25 -1.65625,1.03125 -1.65625,1.359375 0,0 0,0.015625 0.015625,0.046875 H 1.3125 l -0.71875,2.75 c -0.03125,0.125 -0.21875,0.75 -0.21875,0.9375 0,0.21875 0.203125,0.375 0.46875,0.375 0.46875,0 0.796875,-0.28125 1.421875,-1.203125 l -0.125,-0.078125 c -0.5,0.640625 -0.65625,0.796875 -0.8125,0.796875 -0.09375,0 -0.15625,-0.078125 -0.15625,-0.203125 0,-0.015625 0,-0.015625 0.015625,-0.046875 l 0.875,-3.328125 h 0.84375 z m 0,0"
                 id="id-ae660aad-9d29-447c-bf3a-ad06f23aaac9" />
            </symbol>
            <symbol
               overflow="visible"
               id="id-764344a9-19ee-4587-9c6b-57639e3d7fa6">
              <path
                 style="stroke:none"
                 d="m 6.453125,-3.875 c 0,-0.296875 -0.21875,-0.515625 -0.515625,-0.515625 -0.234375,0 -0.390625,0.125 -0.390625,0.328125 0,0.140625 0.0625,0.21875 0.21875,0.359375 0.15625,0.15625 0.21875,0.25 0.21875,0.375 0,0.421875 -0.34375,0.953125 -1.640625,2.59375 L 4.015625,-4.25 C 4.015625,-4.359375 4,-4.390625 3.9375,-4.390625 c -0.046875,0 -0.078125,0.03125 -0.125,0.109375 L 1.890625,-1.25 C 1.859375,-2.140625 1.71875,-3.34375 1.578125,-4.0625 1.515625,-4.375 1.5,-4.390625 1.390625,-4.390625 0.875,-4.28125 0.15625,-4.15625 0.15625,-4.15625 v 0.125 h 0.296875 c 0.28125,0 0.359375,0.0625 0.4375,0.421875 C 1,-3.125 1.125,-1.96875 1.171875,-1.171875 l 0.03125,0.875 C 1.21875,0.09375 1.25,0.171875 1.328125,0.171875 1.453125,0.171875 2.5,-1.75 2.5,-1.75 L 3.375,-3.15625 3.703125,-0.125 C 3.71875,0.15625 3.734375,0.171875 3.8125,0.171875 3.890625,0.171875 4,0.078125 4.25,-0.25 L 4.34375,-0.359375 C 5.734375,-2.03125 6.453125,-3.234375 6.453125,-3.875 Z m 0,0"
                 id="id-f1766914-3842-4c43-8845-3af8883d24bf" />
            </symbol>
            <symbol
               overflow="visible"
               id="id-2a179104-8a07-4069-9b72-842969634b29">
              <path
                 style="stroke:none"
                 d=""
                 id="id-d292ce95-ba9e-4c12-a901-5136165a0cb8" />
            </symbol>
            <symbol
               overflow="visible"
               id="id-8d3f698f-aa8b-436b-980b-00cbd095b6af">
              <path
                 style="stroke:none"
                 d="M 2.9375,-7.140625 C 1.5,-6.203125 0.484375,-4.59375 0.484375,-2.5625 c 0,1.859375 1.046875,3.734375 2.421875,4.578125 l 0.125,-0.15625 C 1.71875,0.8125 1.328125,-0.390625 1.328125,-2.59375 1.328125,-4.8125 1.75,-5.953125 3.03125,-6.984375 Z m 0,0"
                 id="id-00128e31-0884-4e37-9851-fa36c8a09140" />
            </symbol>
            <symbol
               overflow="visible"
               id="id-c829704e-0400-40b2-8413-e91e75065156">
              <path
                 style="stroke:none"
                 d="m 0.375,-7.140625 -0.078125,0.15625 c 1.28125,1.03125 1.6875,2.171875 1.6875,4.390625 0,2.203125 -0.375,3.40625 -1.6875,4.453125 l 0.109375,0.15625 c 1.375,-0.84375 2.4375,-2.71875 2.4375,-4.578125 0,-2.03125 -1.015625,-3.640625 -2.46875,-4.578125 z m 0,0"
                 id="id-45c47b18-285c-460b-9dd0-882b0ba5d351" />
            </symbol>
            <symbol
               overflow="visible"
               id="id-fdde99f1-d33d-4967-a251-354f2f22112f">
              <path
                 style="stroke:none"
                 d="m 9.59375,-2.578125 -1.953125,-2.03125 -0.3125,0.328125 1.1875,1.4375 H 0.625 v 0.5625 h 7.890625 l -1.1875,1.4375 0.3125,0.328125 z m 0,0"
                 id="id-41f237c9-c5d5-45d7-8dc4-44d097275da3" />
            </symbol>
          </g>
        </defs>
        <g
           id="id-b7296f2a-7f25-4e95-be75-77f492bf2e92"
           transform="translate(-148.446,-127.624)">
          <g
             style="fill:#000000;fill-opacity:1"
             id="id-3b837116-8438-4a33-90bf-6234f5baed2e">
            <g
               transform="translate(148.712,134.765)"
               id="g1221">
              <path
                 style="stroke:none"
                 d="M 4.140625,-1.03125 4,-1.109375 C 3.921875,-1 3.875,-0.953125 3.78125,-0.84375 3.5625,-0.53125 3.453125,-0.4375 3.3125,-0.4375 c -0.125,0 -0.21875,-0.125 -0.296875,-0.40625 C 3,-0.9375 2.984375,-0.984375 2.984375,-1 2.734375,-1.9375 2.625,-2.484375 2.625,-2.625 c 0.4375,-0.78125 0.796875,-1.21875 0.96875,-1.21875 0.0625,0 0.15625,0.03125 0.25,0.078125 0.109375,0.078125 0.1875,0.09375 0.265625,0.09375 0.203125,0 0.34375,-0.140625 0.34375,-0.359375 0,-0.21875 -0.171875,-0.359375 -0.40625,-0.359375 -0.4375,0 -0.8125,0.359375 -1.5,1.421875 L 2.4375,-3.515625 c -0.140625,-0.6875 -0.25,-0.875 -0.53125,-0.875 -0.21875,0 -0.546875,0.078125 -1.15625,0.28125 L 0.640625,-4.0625 0.671875,-3.921875 0.84375,-3.953125 C 1.03125,-4 1.15625,-4.03125 1.234375,-4.03125 c 0.25,0 0.3125,0.09375 0.453125,0.6875 l 0.28125,1.234375 -0.8125,1.15625 C 0.953125,-0.640625 0.75,-0.46875 0.640625,-0.46875 0.59375,-0.46875 0.484375,-0.5 0.390625,-0.5625 0.265625,-0.625 0.15625,-0.65625 0.0625,-0.65625 c -0.1875,0 -0.328125,0.140625 -0.328125,0.34375 0,0.265625 0.1875,0.421875 0.5,0.421875 0.296875,0 0.421875,-0.09375 0.921875,-0.6875 L 2.046875,-1.75 l 0.3125,1.1875 c 0.125,0.515625 0.25,0.671875 0.578125,0.671875 0.375,0 0.625,-0.234375 1.203125,-1.140625 z m 0,0"
                 id="id-587309b0-6bef-47e1-b35d-af0bb3a7ad66" />
            </g>
          </g>
          <g
             style="fill:#000000;fill-opacity:1"
             id="id-4e0d378d-f3b6-47a6-a51d-ee5dcf849c7e">
            <g
               transform="translate(154.117,134.765)"
               id="g1225">
              <path
                 style="stroke:none"
                 d="M 2.9375,-7.140625 C 1.5,-6.203125 0.484375,-4.59375 0.484375,-2.5625 c 0,1.859375 1.046875,3.734375 2.421875,4.578125 l 0.125,-0.15625 C 1.71875,0.8125 1.328125,-0.390625 1.328125,-2.59375 1.328125,-4.8125 1.75,-5.953125 3.03125,-6.984375 Z m 0,0"
                 id="id-e9b1bdd8-9c5b-4f37-a48e-1752b3c380d0" />
            </g>
          </g>
          <g
             style="fill:#000000;fill-opacity:1"
             id="id-5bfdcf93-d1e6-4bb0-b6fe-b39c5b1a2d27">
            <g
               transform="translate(157.793,134.765)"
               id="g1229">
              <path
                 style="stroke:none"
                 d="M 2.953125,-4.265625 H 2.15625 l 0.28125,-1.03125 c 0,-0.015625 0,-0.03125 0,-0.046875 0,-0.0625 -0.03125,-0.09375 -0.078125,-0.09375 -0.0625,0 -0.09375,0 -0.140625,0.078125 -0.953125,1.25 -1.65625,1.03125 -1.65625,1.359375 0,0 0,0.015625 0.015625,0.046875 H 1.3125 l -0.71875,2.75 c -0.03125,0.125 -0.21875,0.75 -0.21875,0.9375 0,0.21875 0.203125,0.375 0.46875,0.375 0.46875,0 0.796875,-0.28125 1.421875,-1.203125 l -0.125,-0.078125 c -0.5,0.640625 -0.65625,0.796875 -0.8125,0.796875 -0.09375,0 -0.15625,-0.078125 -0.15625,-0.203125 0,-0.015625 0,-0.015625 0.015625,-0.046875 l 0.875,-3.328125 h 0.84375 z m 0,0"
                 id="id-d6ada685-1e29-4448-b573-56f935cd9891" />
            </g>
          </g>
          <g
             style="fill:#000000;fill-opacity:1"
             id="id-9cffa052-b97d-4c31-a746-58a8609e6f1a">
            <g
               transform="translate(161.141,134.765)"
               id="g1233">
              <path
                 style="stroke:none"
                 d="m 0.375,-7.140625 -0.078125,0.15625 c 1.28125,1.03125 1.6875,2.171875 1.6875,4.390625 0,2.203125 -0.375,3.40625 -1.6875,4.453125 l 0.109375,0.15625 c 1.375,-0.84375 2.4375,-2.71875 2.4375,-4.578125 0,-2.03125 -1.015625,-3.640625 -2.46875,-4.578125 z m 0,0"
                 id="id-f6c80df4-64fe-4a64-9da0-fab2e96b5589" />
            </g>
          </g>
          <g
             style="fill:#000000;fill-opacity:1"
             id="id-3506773b-b373-4e8a-8d2d-446cfc8c871b">
            <g
               transform="translate(167.716,134.765)"
               id="g1237">
              <path
                 style="stroke:none"
                 d="m 9.59375,-2.578125 -1.953125,-2.03125 -0.3125,0.328125 1.1875,1.4375 H 0.625 v 0.5625 h 7.890625 l -1.1875,1.4375 0.3125,0.328125 z m 0,0"
                 id="id-a517c717-33a7-4089-beca-b2d0c7f89e25" />
            </g>
          </g>
          <g
             style="fill:#000000;fill-opacity:1"
             id="id-62c0988c-3334-4061-b2f3-2879c111c347">
            <g
               transform="translate(180.693,134.765)"
               id="g1241">
              <path
                 style="stroke:none"
                 d="M 4.140625,-1.03125 4,-1.109375 C 3.921875,-1 3.875,-0.953125 3.78125,-0.84375 3.5625,-0.53125 3.453125,-0.4375 3.3125,-0.4375 c -0.125,0 -0.21875,-0.125 -0.296875,-0.40625 C 3,-0.9375 2.984375,-0.984375 2.984375,-1 2.734375,-1.9375 2.625,-2.484375 2.625,-2.625 c 0.4375,-0.78125 0.796875,-1.21875 0.96875,-1.21875 0.0625,0 0.15625,0.03125 0.25,0.078125 0.109375,0.078125 0.1875,0.09375 0.265625,0.09375 0.203125,0 0.34375,-0.140625 0.34375,-0.359375 0,-0.21875 -0.171875,-0.359375 -0.40625,-0.359375 -0.4375,0 -0.8125,0.359375 -1.5,1.421875 L 2.4375,-3.515625 c -0.140625,-0.6875 -0.25,-0.875 -0.53125,-0.875 -0.21875,0 -0.546875,0.078125 -1.15625,0.28125 L 0.640625,-4.0625 0.671875,-3.921875 0.84375,-3.953125 C 1.03125,-4 1.15625,-4.03125 1.234375,-4.03125 c 0.25,0 0.3125,0.09375 0.453125,0.6875 l 0.28125,1.234375 -0.8125,1.15625 C 0.953125,-0.640625 0.75,-0.46875 0.640625,-0.46875 0.59375,-0.46875 0.484375,-0.5 0.390625,-0.5625 0.265625,-0.625 0.15625,-0.65625 0.0625,-0.65625 c -0.1875,0 -0.328125,0.140625 -0.328125,0.34375 0,0.265625 0.1875,0.421875 0.5,0.421875 0.296875,0 0.421875,-0.09375 0.921875,-0.6875 L 2.046875,-1.75 l 0.3125,1.1875 c 0.125,0.515625 0.25,0.671875 0.578125,0.671875 0.375,0 0.625,-0.234375 1.203125,-1.140625 z m 0,0"
                 id="id-2d8c0af3-816e-4d3b-8162-5bc7438727f9" />
            </g>
          </g>
          <g
             style="fill:#000000;fill-opacity:1"
             id="id-575604af-d06a-445c-ae7d-6405453e2b1c">
            <g
               transform="translate(186.098,134.765)"
               id="g1245">
              <path
                 style="stroke:none"
                 d="M 2.9375,-7.140625 C 1.5,-6.203125 0.484375,-4.59375 0.484375,-2.5625 c 0,1.859375 1.046875,3.734375 2.421875,4.578125 l 0.125,-0.15625 C 1.71875,0.8125 1.328125,-0.390625 1.328125,-2.59375 1.328125,-4.8125 1.75,-5.953125 3.03125,-6.984375 Z m 0,0"
                 id="id-9fec129c-5cd4-48f8-9306-16247642a033" />
            </g>
          </g>
          <g
             style="fill:#000000;fill-opacity:1"
             id="id-3c44bef0-21c8-4e6d-9e96-d1356d727f28">
            <g
               transform="translate(189.774,134.765)"
               id="g1249">
              <path
                 style="stroke:none"
                 d="M 2.953125,-4.265625 H 2.15625 l 0.28125,-1.03125 c 0,-0.015625 0,-0.03125 0,-0.046875 0,-0.0625 -0.03125,-0.09375 -0.078125,-0.09375 -0.0625,0 -0.09375,0 -0.140625,0.078125 -0.953125,1.25 -1.65625,1.03125 -1.65625,1.359375 0,0 0,0.015625 0.015625,0.046875 H 1.3125 l -0.71875,2.75 c -0.03125,0.125 -0.21875,0.75 -0.21875,0.9375 0,0.21875 0.203125,0.375 0.46875,0.375 0.46875,0 0.796875,-0.28125 1.421875,-1.203125 l -0.125,-0.078125 c -0.5,0.640625 -0.65625,0.796875 -0.8125,0.796875 -0.09375,0 -0.15625,-0.078125 -0.15625,-0.203125 0,-0.015625 0,-0.015625 0.015625,-0.046875 l 0.875,-3.328125 h 0.84375 z m 0,0"
                 id="id-98066c4d-067e-4a41-bac6-d42475e91e59" />
            </g>
          </g>
          <g
             style="fill:#000000;fill-opacity:1"
             id="id-919faf4a-8503-4db8-97c4-08b7742c394f">
            <g
               transform="translate(193.121,134.765)"
               id="g1253">
              <path
                 style="stroke:none"
                 d="m 0.375,-7.140625 -0.078125,0.15625 c 1.28125,1.03125 1.6875,2.171875 1.6875,4.390625 0,2.203125 -0.375,3.40625 -1.6875,4.453125 l 0.109375,0.15625 c 1.375,-0.84375 2.4375,-2.71875 2.4375,-4.578125 0,-2.03125 -1.015625,-3.640625 -2.46875,-4.578125 z m 0,0"
                 id="id-b6901158-2703-405a-803b-59e724056859" />
            </g>
          </g>
          <g
             style="fill:#000000;fill-opacity:1"
             id="id-9af31b0b-704b-4bb2-9729-72aa957fe270">
            <g
               transform="translate(197.066,134.765)"
               id="g1257">
              <path
                 style="stroke:none"
                 d="m 6.453125,-3.875 c 0,-0.296875 -0.21875,-0.515625 -0.515625,-0.515625 -0.234375,0 -0.390625,0.125 -0.390625,0.328125 0,0.140625 0.0625,0.21875 0.21875,0.359375 0.15625,0.15625 0.21875,0.25 0.21875,0.375 0,0.421875 -0.34375,0.953125 -1.640625,2.59375 L 4.015625,-4.25 C 4.015625,-4.359375 4,-4.390625 3.9375,-4.390625 c -0.046875,0 -0.078125,0.03125 -0.125,0.109375 L 1.890625,-1.25 C 1.859375,-2.140625 1.71875,-3.34375 1.578125,-4.0625 1.515625,-4.375 1.5,-4.390625 1.390625,-4.390625 0.875,-4.28125 0.15625,-4.15625 0.15625,-4.15625 v 0.125 h 0.296875 c 0.28125,0 0.359375,0.0625 0.4375,0.421875 C 1,-3.125 1.125,-1.96875 1.171875,-1.171875 l 0.03125,0.875 C 1.21875,0.09375 1.25,0.171875 1.328125,0.171875 1.453125,0.171875 2.5,-1.75 2.5,-1.75 L 3.375,-3.15625 3.703125,-0.125 C 3.71875,0.15625 3.734375,0.171875 3.8125,0.171875 3.890625,0.171875 4,0.078125 4.25,-0.25 L 4.34375,-0.359375 C 5.734375,-2.03125 6.453125,-3.234375 6.453125,-3.875 Z m 0,0"
                 id="id-c7fd9b51-47d2-4ec1-8dd3-c9063ff5f548" />
            </g>
          </g>
          <g
             style="fill:#000000;fill-opacity:1"
             id="id-15dc4985-aec7-4130-a61e-8a1f553eead5">
            <g
               transform="translate(204.658,134.765)"
               id="g1261">
              <path
                 style="stroke:none"
                 d="M 2.9375,-7.140625 C 1.5,-6.203125 0.484375,-4.59375 0.484375,-2.5625 c 0,1.859375 1.046875,3.734375 2.421875,4.578125 l 0.125,-0.15625 C 1.71875,0.8125 1.328125,-0.390625 1.328125,-2.59375 1.328125,-4.8125 1.75,-5.953125 3.03125,-6.984375 Z m 0,0"
                 id="id-9a7a2ea6-dc4c-431d-9ad5-6fb8c1fe8305" />
            </g>
          </g>
          <g
             style="fill:#000000;fill-opacity:1"
             id="id-7b9d91e6-6731-43d6-8fa6-9dbf330ac8c4">
            <g
               transform="translate(208.334,134.765)"
               id="g1265">
              <path
                 style="stroke:none"
                 d="M 2.953125,-4.265625 H 2.15625 l 0.28125,-1.03125 c 0,-0.015625 0,-0.03125 0,-0.046875 0,-0.0625 -0.03125,-0.09375 -0.078125,-0.09375 -0.0625,0 -0.09375,0 -0.140625,0.078125 -0.953125,1.25 -1.65625,1.03125 -1.65625,1.359375 0,0 0,0.015625 0.015625,0.046875 H 1.3125 l -0.71875,2.75 c -0.03125,0.125 -0.21875,0.75 -0.21875,0.9375 0,0.21875 0.203125,0.375 0.46875,0.375 0.46875,0 0.796875,-0.28125 1.421875,-1.203125 l -0.125,-0.078125 c -0.5,0.640625 -0.65625,0.796875 -0.8125,0.796875 -0.09375,0 -0.15625,-0.078125 -0.15625,-0.203125 0,-0.015625 0,-0.015625 0.015625,-0.046875 l 0.875,-3.328125 h 0.84375 z m 0,0"
                 id="id-08a7a8e4-0013-416a-a269-1316405537cd" />
            </g>
          </g>
          <g
             style="fill:#000000;fill-opacity:1"
             id="id-228000dc-6e50-48b5-aa1e-46f3ef34bbbc">
            <g
               transform="translate(211.682,134.765)"
               id="g1269">
              <path
                 style="stroke:none"
                 d="m 0.375,-7.140625 -0.078125,0.15625 c 1.28125,1.03125 1.6875,2.171875 1.6875,4.390625 0,2.203125 -0.375,3.40625 -1.6875,4.453125 l 0.109375,0.15625 c 1.375,-0.84375 2.4375,-2.71875 2.4375,-4.578125 0,-2.03125 -1.015625,-3.640625 -2.46875,-4.578125 z m 0,0"
                 id="id-7304a5ab-8318-4c9a-8fcc-306c97d8d2c5" />
            </g>
          </g>
        </g>
      </g>
      <g
         transform="matrix(0.529167,0,0,0.529167,222.10293,194.38371)"
         ns1:version="1.1.0"
         ns1:texconverter="xelatex"
         ns1:pdfconverter="inkscape"
         ns1:text="$T$"
         ns1:preamble="/home/xiaocy/.config/inkscape/extensions/textext/default_packages.tex"
         ns1:scale="1.5"
         ns1:alignment="middle center"
         ns1:inkscapeversion="1.0.1"
         ns1:jacobian_sqrt="0.529167"
         id="g1455">
        <defs
           id="id-a750f3dd-50df-4db1-b435-4b293a3772e7">
          <g
             id="id-d2d3b941-b993-45ac-8199-880be8303aac">
            <symbol
               overflow="visible"
               id="id-f063ba25-8293-404a-8f80-97a764c32e08">
              <path
                 style="stroke:none"
                 d=""
                 id="id-c0ec495f-7371-4654-a516-bbd8c6dc7e08" />
            </symbol>
            <symbol
               overflow="visible"
               id="id-e15919ac-dfe1-4653-81b0-43c432267d4e">
              <path
                 style="stroke:none"
                 d="M 6.3125,-6.515625 H 1 L 0.59375,-4.96875 0.765625,-4.9375 c 0.5,-1.03125 0.8125,-1.21875 2.171875,-1.21875 0.0625,0 0.140625,0 0.203125,0 l -1.4375,5.265625 C 1.546875,-0.375 1.3125,-0.203125 0.640625,-0.15625 V 0 H 3.53125 V -0.15625 L 3.15625,-0.1875 C 2.75,-0.21875 2.640625,-0.3125 2.640625,-0.625 c 0,-0.109375 0.015625,-0.21875 0.125,-0.578125 l 1.375,-4.953125 H 4.6875 c 0.71875,0 1.046875,0.25 1.046875,0.796875 0,0.140625 -0.015625,0.28125 -0.03125,0.453125 L 5.875,-4.890625 Z m 0,0"
                 id="id-6372a710-8357-4185-a190-12f30ed48d93" />
            </symbol>
          </g>
        </defs>
        <g
           id="id-21b4c4ba-16dc-4cef-a462-1859a71719cd"
           transform="translate(-148.958,-128.249)">
          <g
             style="fill:#000000;fill-opacity:1"
             id="id-36515792-9dd9-4475-bde5-5f1c9f2e4166">
            <g
               transform="translate(148.364,134.765)"
               id="g1451">
              <path
                 style="stroke:none"
                 d="M 6.3125,-6.515625 H 1 L 0.59375,-4.96875 0.765625,-4.9375 c 0.5,-1.03125 0.8125,-1.21875 2.171875,-1.21875 0.0625,0 0.140625,0 0.203125,0 l -1.4375,5.265625 C 1.546875,-0.375 1.3125,-0.203125 0.640625,-0.15625 V 0 H 3.53125 V -0.15625 L 3.15625,-0.1875 C 2.75,-0.21875 2.640625,-0.3125 2.640625,-0.625 c 0,-0.109375 0.015625,-0.21875 0.125,-0.578125 l 1.375,-4.953125 H 4.6875 c 0.71875,0 1.046875,0.25 1.046875,0.796875 0,0.140625 -0.015625,0.28125 -0.03125,0.453125 L 5.875,-4.890625 Z m 0,0"
                 id="id-ce64b5bb-031d-43fc-88ed-5b580b0f23f5" />
            </g>
          </g>
        </g>
      </g>
      <rect
         style="font-variation-settings:normal;opacity:1;vector-effect:none;fill:none;fill-opacity:1;fill-rule:evenodd;stroke:#000000;stroke-width:0.25;stroke-linecap:round;stroke-linejoin:round;stroke-miterlimit:4;stroke-dasharray:none;stroke-dashoffset:0;stroke-opacity:1;stop-color:#000000;stop-opacity:1"
         id="rect1010"
         width="88.87793"
         height="37.804054"
         x="131.29382"
         y="162.02306" />
    </g>
  </g>
</svg>
